<svg width="21" height="20" viewBox="0 0 21 20" fill="none" xmlns="http://www.w3.org/2000/svg">
    <path fill-rule="evenodd" clip-rule="evenodd" d="M7.33984 2C5.68299 2 4.33984 3.34315 4.33984 5C4.33984 6.65685 5.68299 8 7.33984 8C8.9967 8 10.3398 6.65685 10.3398 5C10.3398 3.34315 8.9967 2 7.33984 2ZM2.33984 5C2.33984 2.23858 4.57842 0 7.33984 0C10.1013 0 12.3398 2.23858 12.3398 5C12.3398 7.76142 10.1013 10 7.33984 10C4.57842 10 2.33984 7.76142 2.33984 5ZM16.3398 6C16.8921 6 17.3398 6.44772 17.3398 7V9H19.3398C19.8921 9 20.3398 9.44771 20.3398 10C20.3398 10.5523 19.8921 11 19.3398 11H17.3398V13C17.3398 13.5523 16.8921 14 16.3398 14C15.7876 14 15.3398 13.5523 15.3398 13V11H13.3398C12.7876 11 12.3398 10.5523 12.3398 10C12.3398 9.44771 12.7876 9 13.3398 9H15.3398V7C15.3398 6.44772 15.7876 6 16.3398 6ZM7.33984 13C4.57842 13 2.33984 15.2386 2.33984 18H12.3398C12.3398 15.2386 10.1013 13 7.33984 13ZM0.339844 18C0.339844 14.134 3.47385 11 7.33984 11C11.2058 11 14.3398 14.134 14.3398 18V19C14.3398 19.5523 13.8921 20 13.3398 20H1.33984C0.787559 20 0.339844 19.5523 0.339844 19V18Z" fill="#545F71"/>
</svg>
