<svg xmlns="http://www.w3.org/2000/svg" version="1.0" width="512.000000pt" height="512.000000pt" viewBox="0 0 512.000000 512.000000" preserveAspectRatio="xMidYMid meet">

<g transform="translate(0.000000,512.000000) scale(0.100000,-0.100000)" fill="#000000" stroke="none">
<path d="M1106 4949 c-62 -15 -153 -68 -197 -116 -22 -24 -55 -74 -72 -111 l-32 -67 -3 -567 -3 -568 -136 0 c-169 0 -203 -10 -268 -75 -69 -68 -75 -94 -75 -325 0 -231 6 -257 75 -325 65 -66 99 -75 269 -75 l136 0 0 -720 0 -720 -136 0 c-170 0 -204 -9 -269 -75 -69 -68 -75 -94 -75 -325 0 -231 6 -257 75 -325 65 -66 99 -75 274 -75 112 0 141 -3 141 -14 0 -7 16 -45 35 -83 43 -86 103 -144 193 -186 l67 -32 1455 0 1455 0 67 32 c90 42 150 100 193 186 19 38 35 76 35 83 0 11 29 14 141 14 82 0 159 5 183 12 55 16 138 99 154 154 16 55 16 412 0 466 -6 22 -31 62 -55 88 -61 68 -102 80 -275 80 l-138 0 0 720 0 720 138 0 c173 0 214 12 275 80 24 26 49 66 55 88 16 53 16 411 0 464 -6 22 -31 62 -55 88 -61 68 -102 80 -275 80 l-138 0 0 57 0 58 -663 662 -662 663 -925 -1 c-518 -1 -942 -5 -964 -10z m2436 -766 l618 -618 0 -1519 c0 -1163 -3 -1528 -12 -1560 -16 -55 -99 -138 -154 -154 -60 -17 -2808 -17 -2868 0 -55 16 -138 99 -154 154 -18 60 -18 4088 0 4148 15 51 99 137 148 153 24 8 305 11 920 12 l885 1 617 -617z m-2742 -903 l0 -80 -80 0 -80 0 0 -80 0 -80 80 0 80 0 0 -80 0 -80 -135 0 c-131 0 -137 1 -160 25 -25 24 -25 26 -25 215 0 189 0 191 25 215 23 24 29 25 160 25 l135 0 0 -80z m3815 55 c25 -24 25 -26 25 -215 0 -189 0 -191 -25 -215 -23 -24 -29 -25 -160 -25 l-135 0 0 80 0 80 80 0 80 0 0 80 0 80 -80 0 -80 0 0 80 0 80 135 0 c131 0 137 -1 160 -25z m-3815 -2295 l0 -80 -80 0 -80 0 0 -80 0 -80 80 0 80 0 0 -80 0 -80 -135 0 c-131 0 -137 1 -160 25 -25 24 -25 26 -25 215 0 189 0 191 25 215 23 24 29 25 160 25 l135 0 0 -80z m3815 55 c25 -24 25 -26 25 -215 0 -189 0 -191 -25 -215 -23 -24 -29 -25 -160 -25 l-135 0 0 80 0 80 80 0 80 0 0 80 0 80 -80 0 -80 0 0 80 0 80 135 0 c131 0 137 -1 160 -25z"/>
<path d="M1215 4466 c-37 -16 -70 -52 -84 -89 -8 -20 -11 -598 -11 -1898 0 -2065 -5 -1911 66 -1965 l37 -29 1338 0 c1335 0 1338 0 1365 21 15 11 37 33 48 48 21 27 21 31 24 1474 l2 1447 -503 502 -502 503 -875 0 c-707 -1 -881 -3 -905 -14z m1265 -306 l0 -160 -600 0 -600 0 0 160 0 160 600 0 600 0 0 -160z m605 0 l160 -160 -303 0 -302 0 0 160 0 160 143 0 142 0 160 -160z m-605 -480 l0 -160 -600 0 -600 0 0 160 0 160 600 0 600 0 0 -160z m1085 0 l160 -160 -543 0 -542 0 0 160 0 160 383 0 382 0 160 -160z m-1085 -480 l0 -160 -600 0 -600 0 0 160 0 160 600 0 600 0 0 -160z m1360 0 l0 -160 -600 0 -600 0 0 160 0 160 600 0 600 0 0 -160z m-1360 -480 l0 -160 -600 0 -600 0 0 160 0 160 600 0 600 0 0 -160z m1360 0 l0 -160 -600 0 -600 0 0 160 0 160 600 0 600 0 0 -160z m-1360 -480 l0 -160 -600 0 -600 0 0 160 0 160 600 0 600 0 0 -160z m1360 0 l0 -160 -600 0 -600 0 0 160 0 160 600 0 600 0 0 -160z m-1360 -480 l0 -160 -600 0 -600 0 0 160 0 160 600 0 600 0 0 -160z m1360 0 l0 -160 -600 0 -600 0 0 160 0 160 600 0 600 0 0 -160z m-1360 -480 l0 -160 -600 0 -600 0 0 160 0 160 600 0 600 0 0 -160z m1360 0 l0 -160 -600 0 -600 0 0 160 0 160 600 0 600 0 0 -160z m-1360 -480 l0 -160 -600 0 -600 0 0 160 0 160 600 0 600 0 0 -160z m1360 0 l0 -160 -600 0 -600 0 0 160 0 160 600 0 600 0 0 -160z"/>
</g>
</svg>