<svg width="42" height="42" viewBox="0 0 42 42" fill="none" xmlns="http://www.w3.org/2000/svg">
<path d="M9.46268 41.9838C9.05056 41.9838 8.6545 41.9906 8.25308 41.977C8.19956 41.977 8.11392 41.8687 8.10322 41.7942C8.03364 41.1916 7.69645 40.8464 7.34856 40.5078C6.98461 40.1558 6.5939 39.8308 6.26207 39.4246C5.06317 37.9486 5.13275 35.9039 6.42263 34.5024C6.85081 34.0352 7.32715 33.629 7.74462 33.1483C8.22632 32.5999 8.23702 31.7197 7.77674 31.1442C7.50377 30.8057 7.18799 30.5349 6.89897 30.2235C6.61531 29.9188 6.3477 29.5938 6.05333 29.3027C5.95699 29.2079 5.81248 29.1605 5.68938 29.1537C5.04712 29.1402 4.40485 29.147 3.76259 29.147C3.00793 29.147 2.28003 29.0183 1.61636 28.4902C0.920578 27.935 0.412119 27.1835 0.187327 26.195C0.0588741 25.6331 0.010705 25.0237 0.010705 24.4347C6.53184e-07 17.7861 0.00535219 11.1442 0 4.4956C0 3.39878 0.219441 2.41706 0.786773 1.56398C1.41298 0.622885 2.2051 0.101557 3.1792 0.0203115C3.35047 0.00677049 3.51639 0 3.68766 0C15.2323 0 26.7717 0 38.3163 0C38.8623 0 39.4028 0.0473934 39.9113 0.331754C40.8586 0.866622 41.533 1.72647 41.822 3.0061C41.9291 3.47326 41.9933 3.97428 41.9933 4.46175C42.004 11.1984 41.9987 17.935 41.9987 24.6717C41.9987 26.2153 41.5223 27.4611 40.5322 28.3683C39.906 28.9438 39.1781 29.1402 38.418 29.147C37.4814 29.147 36.5448 29.147 35.6081 29.147C35.5011 29.147 35.3994 29.147 35.2924 29.147C35.2817 29.174 35.2763 29.1943 35.2656 29.2214C35.4476 29.4381 35.6188 29.6615 35.8062 29.8714C36.8606 31.063 36.9087 33.3447 35.5439 34.7055C35.1693 35.0779 34.7893 35.4503 34.4146 35.8226C33.6385 36.6013 33.7563 37.6913 34.5431 38.4361C35.0462 38.91 35.5386 39.411 35.9828 39.9662C36.4003 40.4875 36.5715 41.1781 36.5715 41.9703C36.138 41.9703 35.7205 41.977 35.3031 41.9635C35.2603 41.9635 35.1853 41.8755 35.1853 41.8213C35.1425 41.1849 34.7785 40.8599 34.436 40.5011C34.0078 40.061 33.5422 39.6683 33.1729 39.1673C32.1988 37.8403 32.2898 35.8971 33.3602 34.6852C33.7777 34.218 34.2326 33.805 34.6715 33.365C35.4101 32.6202 35.3566 31.5369 34.5805 30.7786C34.0828 30.2912 33.5583 29.8308 33.1354 29.2485C32.1827 27.9418 32.3058 25.9648 33.3763 24.7935C33.8259 24.2993 34.3076 23.866 34.7678 23.3853C34.9926 23.1551 35.1479 22.8639 35.18 22.478C35.1853 22.3968 35.2977 22.2681 35.3619 22.2614C35.7098 22.2411 36.0577 22.2411 36.4056 22.2614C36.4645 22.2681 36.5715 22.4442 36.5608 22.5119C36.4966 22.9046 36.4056 23.2905 36.3146 23.6764C36.2932 23.7712 36.2504 23.8524 36.2022 23.9811C36.7375 23.9811 37.2352 23.9878 37.733 23.9743C37.7918 23.9743 37.8935 23.8389 37.8935 23.7644C37.9042 22.7827 37.8989 21.801 37.9042 20.8193C37.9042 20.6364 37.84 20.5823 37.7062 20.5891C37.642 20.5958 37.5831 20.5891 37.5189 20.5891C33.7188 20.5891 29.9188 20.5891 26.1187 20.5891C26.0063 20.5891 25.8886 20.5891 25.7601 20.5891C25.7601 21.7265 25.7601 22.8301 25.7601 23.9878C25.8511 23.9878 25.9474 23.9878 26.0384 23.9878C26.777 23.9878 27.521 23.9472 28.2596 24.0014C28.6663 24.0285 28.9661 23.8457 29.239 23.5274C29.4906 23.2295 29.7368 22.9181 29.7635 22.4374C29.7689 22.3697 29.8759 22.2614 29.9402 22.2614C30.2881 22.2411 30.636 22.2546 30.9838 22.2546C31.1658 22.2546 31.1551 22.4035 31.1444 22.5593C31.0748 23.453 30.7483 24.1842 30.2078 24.7529C29.7796 25.2065 29.3193 25.606 28.9018 26.0799C28.2917 26.7637 28.297 27.6642 28.9072 28.348C29.2926 28.7746 29.71 29.1605 30.1114 29.5667C31.5405 30.9885 31.5084 33.4598 29.9402 34.8951C29.6619 35.1524 29.3835 35.4164 29.1106 35.6805C28.2007 36.5539 28.2596 37.6371 29.132 38.4767C29.6351 38.9574 30.1275 39.4584 30.5717 40.0136C30.9731 40.5214 31.1284 41.1984 31.1498 41.9838C30.7109 41.9838 30.2881 41.9906 29.8652 41.977C29.8278 41.977 29.7582 41.8822 29.7582 41.8281C29.7154 41.2255 29.3728 40.8937 29.0464 40.5552C28.6342 40.1287 28.1739 39.7698 27.81 39.2824C26.6646 37.7658 26.8734 35.6195 28.2489 34.3331C28.5754 34.0285 28.8965 33.7035 29.2176 33.392C29.983 32.6541 29.9455 31.5572 29.148 30.7989C28.7359 30.4063 28.2917 30.0542 27.9438 29.587C27.6655 29.2147 27.3872 29.1537 27.0286 29.1605C22.6665 29.1673 18.3045 29.1673 13.9425 29.1673C13.8247 29.1673 13.7016 29.1808 13.6374 29.1808C13.814 29.4381 13.9799 29.7292 14.1833 29.973C15.2002 31.1916 15.1039 33.3785 14.0281 34.5227C13.5732 35.0102 13.0968 35.4503 12.6419 35.9377C12.3796 36.2221 12.203 36.5742 12.1976 37.0413C12.1869 37.6981 12.5134 38.084 12.8667 38.4564C13.3216 38.9371 13.7926 39.3975 14.2315 39.8985C14.665 40.3927 14.8256 41.0562 14.8737 41.7671C14.8791 41.8416 14.7935 41.9838 14.7453 41.9838C14.3813 42.0041 14.012 42.0041 13.6481 41.9906C13.5946 41.9906 13.5089 41.8822 13.4982 41.8145C13.4126 41.212 13.0808 40.8531 12.7222 40.5011C12.31 40.0948 11.8765 39.7157 11.5179 39.2417C10.501 37.8944 10.5652 35.9784 11.6571 34.7123C12.0745 34.2316 12.5348 33.805 12.9844 33.365C13.6749 32.6879 13.6695 31.6114 12.9951 30.9344C12.69 30.6297 12.3743 30.3318 12.0638 30.0339C11.2664 29.2756 10.7419 28.3277 10.8114 27.0075C10.865 25.9445 11.3092 25.1591 11.9514 24.5227C12.3047 24.1774 12.6579 23.8389 13.0005 23.4868C13.2413 23.2431 13.4287 22.9452 13.4715 22.539C13.4982 22.3155 13.5946 22.2478 13.7658 22.2614C14.0442 22.2749 14.3171 22.2614 14.5954 22.2681C14.8844 22.2681 14.9219 22.3155 14.8577 22.6608C14.7721 23.1009 14.665 23.5342 14.5633 23.9811C15.0664 23.9811 15.6123 23.9811 16.185 23.9811C16.185 22.8775 16.185 21.7739 16.185 20.6297C16.094 20.6229 16.0031 20.6094 15.9067 20.6094C12.0638 20.6094 8.21562 20.6094 4.37274 20.6026C4.11584 20.6026 4.03555 20.6906 4.04091 21.0156C4.05696 21.8822 4.05161 22.7556 4.04091 23.6222C4.03555 23.8998 4.08372 24.0217 4.33528 24.0149C5.18092 23.9946 6.03192 24.0149 6.87757 24.0014C6.98996 24.0014 7.12377 23.9472 7.21476 23.8592C7.60011 23.5004 7.99617 23.1415 8.07646 22.4712C8.08716 22.3968 8.20491 22.2884 8.27449 22.2817C8.59562 22.2614 8.91675 22.2817 9.23788 22.2681C9.40915 22.2614 9.44127 22.3562 9.43592 22.5593C9.40915 23.6087 8.95422 24.3399 8.34942 24.9628C7.97477 25.3419 7.59476 25.7075 7.22011 26.0867C6.62066 26.6825 6.61531 27.7522 7.2094 28.3548C7.65364 28.8017 8.10322 29.2417 8.53675 29.7021C9.47338 30.6974 9.66606 32.153 9.23253 33.4598C9.02915 34.0759 8.65449 34.5227 8.23702 34.9222C7.89984 35.2472 7.55194 35.5654 7.23081 35.9174C6.58855 36.6283 6.5832 37.5085 7.22546 38.2262C7.65899 38.7069 8.14068 39.1131 8.56886 39.6006C9.1576 40.1896 9.50014 40.9411 9.46268 41.9838ZM5.64121 25.7414C5.56628 25.7346 5.48065 25.7211 5.39501 25.7211C5.0043 25.7211 4.60824 25.7279 4.21753 25.7143C4.0302 25.7075 3.83752 25.7008 3.66625 25.6263C3.03469 25.3555 2.70821 24.7326 2.70821 23.8118C2.70821 17.6642 2.71356 11.5098 2.70286 5.36223C2.70286 4.38051 3.19526 3.4191 4.22288 3.4191C8.44041 3.43941 12.6633 3.42587 16.8808 3.43264C17.0414 3.43264 17.218 3.4868 17.3679 3.57482C17.9191 3.90657 18.4544 4.27895 19.0056 4.6107C19.3214 4.80028 19.6479 5.05078 19.9851 5.08464C20.6648 5.15911 21.3552 5.11172 22.0457 5.10495C22.1581 5.10495 22.2812 5.0711 22.3775 5.01016C22.9341 4.66487 23.4801 4.29249 24.0421 3.96074C24.4167 3.74408 24.7485 3.41233 25.2035 3.41233C29.3675 3.42587 33.5368 3.4191 37.7008 3.4191C37.9149 3.4191 38.1344 3.42587 38.3378 3.49357C38.9319 3.68992 39.3119 4.40082 39.3119 5.29452C39.3119 11.4421 39.3012 17.5965 39.3226 23.7441C39.3279 24.868 38.7392 25.7482 37.7651 25.7143C36.8713 25.6805 35.9828 25.7075 35.089 25.7075C34.5056 25.7075 33.9704 26.3169 33.9061 27.0549C33.8847 27.3121 33.9329 27.4205 34.1577 27.4205C35.6188 27.4137 37.0853 27.4408 38.5465 27.4069C39.435 27.3866 40.1415 26.8924 40.4679 25.8091C40.6017 25.3622 40.6231 24.8409 40.6231 24.3534C40.6338 17.9012 40.6285 11.4421 40.6285 4.98985C40.6285 4.65132 40.6178 4.3128 40.6017 3.97428C40.5857 3.49357 40.4305 3.08057 40.2057 2.71497C39.7614 1.99729 39.1566 1.7197 38.4502 1.7197C26.8198 1.7197 15.1842 1.7197 3.55385 1.7197C3.51104 1.7197 3.46287 1.7197 3.42005 1.7197C2.77779 1.75356 2.23186 2.05146 1.81975 2.69465C1.4665 3.24306 1.39157 3.87949 1.39157 4.55654C1.39692 11.2119 1.39692 17.8741 1.39692 24.5295C1.39692 24.7123 1.40227 24.8883 1.41298 25.0711C1.46115 26.1544 2.12482 27.17 2.96511 27.2918C3.70372 27.4002 4.45838 27.3731 5.20233 27.4069C5.27191 27.4069 5.34149 27.3934 5.3629 27.3866C5.45389 26.8314 5.54487 26.3033 5.64121 25.7414ZM24.3525 23.9675C24.3525 17.8944 24.3525 11.8484 24.3525 5.72106C23.9939 5.94449 23.6781 6.15437 23.3516 6.33718C23.0091 6.52675 22.6558 6.81111 22.2972 6.84496C21.4355 6.91944 20.5685 6.87205 19.7014 6.86527C19.573 6.86527 19.4338 6.83142 19.3161 6.76372C19.0806 6.63508 18.8558 6.47259 18.6256 6.32364C18.3098 6.12729 17.9941 5.93095 17.6515 5.72106C17.6515 11.8484 17.6515 17.9012 17.6515 23.9608C19.8995 23.9675 22.1206 23.9675 24.3525 23.9675ZM16.2279 15.4367C16.1208 15.4299 16.0512 15.4164 15.9817 15.4164C12.112 15.4164 8.24238 15.4164 4.37274 15.4096C4.1533 15.4096 4.07302 15.4909 4.07837 15.7752C4.08908 16.6419 4.08372 17.5153 4.08372 18.3819C4.08372 18.8287 4.08372 18.8287 4.43697 18.8287C8.26378 18.8287 12.0853 18.8287 15.9121 18.8287C16.0138 18.8287 16.1208 18.8152 16.2332 18.8084C16.2278 17.671 16.2279 16.5674 16.2279 15.4367ZM25.7601 8.53759C25.8511 8.54436 25.91 8.5579 25.9688 8.5579C29.8652 8.5579 33.7616 8.5579 37.6634 8.56467C37.8668 8.56467 37.9256 8.48342 37.9203 8.23968C37.9096 7.37306 37.9149 6.49967 37.9149 5.63305C37.9149 5.15234 37.9149 5.14557 37.5349 5.14557C33.7349 5.14557 29.9348 5.14557 26.1348 5.14557C26.0705 5.14557 26.0117 5.15234 25.9474 5.14557C25.8136 5.1388 25.7548 5.20651 25.7548 5.38254C25.7655 6.41842 25.7601 7.45431 25.7601 8.53759ZM25.7762 18.8016C25.8618 18.8152 25.9314 18.8287 26.001 18.8287C29.8813 18.8287 33.7616 18.8287 37.642 18.8355C37.8454 18.8355 37.9256 18.7746 37.9256 18.497C37.9149 17.5965 37.9149 16.6893 37.9256 15.7888C37.931 15.518 37.8721 15.4096 37.642 15.4164C36.4805 15.4299 35.3245 15.4299 34.163 15.4164C33.9543 15.4164 33.8794 15.4909 33.8847 15.7549C33.9008 16.2153 33.8901 16.6689 33.8901 17.1293C32.0596 17.1293 30.272 17.1293 28.4469 17.1293C28.4469 16.6486 28.4416 16.1882 28.4469 15.7278C28.4523 15.4976 28.3827 15.4096 28.1954 15.4164C27.6441 15.4299 27.0874 15.4232 26.5362 15.4232C26.29 15.4232 26.0438 15.4232 25.7762 15.4232C25.7762 16.5606 25.7762 17.6642 25.7762 18.8016ZM6.78658 10.3588C6.717 10.3385 6.67954 10.3182 6.64742 10.3182C5.8553 10.3182 5.05782 10.3182 4.2657 10.3115C4.07302 10.3115 4.07837 10.4536 4.07837 10.6229C4.07837 11.5031 4.07837 12.3832 4.07837 13.2634C4.07837 13.7102 4.07837 13.7102 4.43162 13.7102C6.8401 13.7102 9.24859 13.7102 11.6571 13.7102C13.0861 13.7102 14.5098 13.7035 15.9388 13.717C16.1904 13.717 16.26 13.6155 16.2493 13.3175C16.2332 12.7556 16.2439 12.1869 16.2439 11.6249C16.2439 11.1984 16.2439 10.7786 16.2439 10.3453C14.8844 10.3453 13.5625 10.3453 12.2191 10.3453C12.2191 10.7989 12.2084 11.2255 12.2244 11.652C12.2351 11.9364 12.1548 12.0244 11.9354 12.0176C10.3137 12.0108 8.68661 12.0108 7.06489 12.0176C6.86151 12.0176 6.77588 11.9499 6.78658 11.6723C6.80264 11.2255 6.78658 10.7922 6.78658 10.3588ZM16.2439 8.54436C16.2439 8.38863 16.2439 8.26677 16.2439 8.15167C16.2439 7.32567 16.2439 6.50644 16.2439 5.68044C16.2439 5.14557 16.2439 5.14557 15.8318 5.14557C12.0531 5.14557 8.27449 5.14557 4.49584 5.14557C4.43162 5.14557 4.37274 5.15234 4.30852 5.14557C4.1533 5.1388 4.08372 5.22682 4.08372 5.42316C4.08907 6.38457 4.08907 7.33921 4.08372 8.30062C4.08372 8.48342 4.13189 8.56467 4.28711 8.5579C5.05247 8.55113 5.81783 8.55113 6.58855 8.5579C6.73841 8.5579 6.79729 8.48342 6.79729 8.30062C6.79193 7.94178 6.81334 7.57618 6.79193 7.21734C6.77587 6.9059 6.86686 6.84496 7.09701 6.84496C8.6759 6.8585 10.2548 6.85173 11.8283 6.85173C12.2244 6.85173 12.2244 6.85173 12.2244 7.33921C12.2244 7.73867 12.2244 8.13813 12.2244 8.54436C13.5785 8.54436 14.8844 8.54436 16.2439 8.54436ZM25.7762 13.7035C26.6272 13.7035 27.446 13.7102 28.2649 13.6899C28.3238 13.6899 28.4308 13.5342 28.4362 13.4462C28.4576 13.0535 28.4523 12.654 28.4416 12.2614C28.4362 12.0447 28.5058 11.9635 28.6771 11.9635C30.3362 11.9702 31.9954 11.9702 33.6546 11.9635C33.8259 11.9635 33.8954 12.0447 33.8901 12.2614C33.8794 12.6337 33.9008 13.0061 33.8847 13.3785C33.874 13.6358 33.949 13.7102 34.1416 13.7035C35.3084 13.6967 36.4805 13.6899 37.6473 13.7035C37.8561 13.7035 37.9256 13.6222 37.9256 13.3582C37.9149 12.4645 37.9096 11.5775 37.9256 10.6838C37.931 10.3588 37.84 10.2979 37.6045 10.2979C33.7509 10.3047 29.8974 10.3047 26.0491 10.3047C25.9635 10.3047 25.8779 10.3182 25.7762 10.325C25.7762 11.4489 25.7762 12.5525 25.7762 13.7035ZM12.2565 27.4205C12.3582 27.4205 12.4653 27.4205 12.5723 27.4205C15.4518 27.4205 18.3366 27.4205 21.2161 27.4205C23.0787 27.4205 24.9466 27.4205 26.8091 27.4272C27.0018 27.4272 27.1249 27.3866 27.0982 27.1023C27.0928 27.0142 27.1089 26.9195 27.1249 26.8314C27.1891 26.4794 27.2587 26.1205 27.3337 25.7143C27.2106 25.7143 27.0982 25.7143 26.9858 25.7143C22.4899 25.7143 17.9941 25.7211 13.4982 25.7008C13.0379 25.7008 12.7436 25.9107 12.476 26.3237C12.2726 26.6351 12.1655 26.9736 12.2565 27.4205ZM10.8168 8.57821C9.95508 8.57821 9.12014 8.57144 8.29055 8.59175C8.24238 8.59175 8.15674 8.74747 8.15139 8.83549C8.13533 9.20786 8.15139 9.58024 8.14068 9.95262C8.12998 10.2099 8.19421 10.3115 8.41365 10.3047C9.00774 10.2844 9.60719 10.2979 10.2013 10.2979C10.4047 10.2979 10.6027 10.2979 10.8168 10.2979C10.8168 9.70211 10.8168 9.16724 10.8168 8.57821ZM32.4985 15.4029C32.4985 14.8815 32.5039 14.4008 32.4878 13.9201C32.4878 13.8592 32.3594 13.7509 32.2898 13.7509C31.5351 13.7373 30.7751 13.7441 30.0151 13.7441C29.8599 13.7441 29.7903 13.8186 29.7903 14.0217C29.7957 14.3941 29.801 14.7664 29.7903 15.1388C29.785 15.3487 29.8545 15.4164 30.0097 15.4096C30.4914 15.4029 30.9731 15.4096 31.4548 15.4096C31.792 15.4029 32.1292 15.4029 32.4985 15.4029Z" fill="black"/>
</svg>
