<svg width="50" height="48" viewBox="0 0 50 48" fill="none" xmlns="http://www.w3.org/2000/svg">
<rect width="50" height="48" rx="8" fill="#40A4C4"/>
<path fill-rule="evenodd" clip-rule="evenodd" d="M26.2454 13.4027C26.7726 12.8658 27.6274 12.8658 28.1546 13.4027L37.6046 23.0277C37.8578 23.2856 38 23.6353 38 24C38 24.3647 37.8578 24.7144 37.6046 24.9723L28.1546 34.5973C27.6274 35.1342 26.7726 35.1342 26.2454 34.5973C25.7182 34.0603 25.7182 33.1897 26.2454 32.6527L33.3908 25.375L12.35 25.375C11.6044 25.375 11 24.7594 11 24C11 23.2406 11.6044 22.625 12.35 22.625L33.3908 22.625L26.2454 15.3473C25.7182 14.8103 25.7182 13.9397 26.2454 13.4027Z" fill="#E1DFDB"/>
</svg>