<svg xmlns="http://www.w3.org/2000/svg" version="1.0" width="50" height="50" viewBox="0 0 512.000000 512.000000" preserveAspectRatio="xMidYMid meet">

<g transform="translate(0.000000,512.000000) scale(0.100000,-0.100000)" fill="#000000" stroke="none">
<path d="M1326 3684 c-12 -12 -16 -37 -16 -105 l0 -89 -94 0 c-73 0 -98 -4 -110 -16 -24 -23 -24 -415 0 -438 12 -12 37 -16 110 -16 l94 0 0 -784 c0 -700 2 -786 16 -800 14 -14 140 -16 1234 -16 1094 0 1220 2 1234 16 14 14 16 93 16 718 0 533 -3 705 -12 714 -7 7 -24 12 -38 12 -14 0 -31 -5 -38 -12 -9 -9 -12 -174 -12 -680 l0 -668 -1150 0 -1150 0 0 750 0 750 149 0 c158 0 181 6 181 50 0 10 -7 26 -16 34 -13 14 -52 16 -275 16 l-259 0 0 135 0 135 1370 0 1370 0 0 -135 0 -135 -909 0 c-814 0 -911 -2 -925 -16 -20 -20 -20 -48 0 -68 14 -14 115 -16 959 -16 844 0 945 2 959 16 14 13 16 47 16 219 0 172 -2 206 -16 219 -12 12 -37 16 -110 16 l-94 0 0 89 c0 68 -4 93 -16 105 -13 13 -45 16 -199 16 -154 0 -186 -3 -199 -16 -12 -12 -16 -37 -16 -105 l0 -89 -820 0 -820 0 0 89 c0 68 -4 93 -16 105 -13 13 -45 16 -199 16 -154 0 -186 -3 -199 -16z m314 -139 l0 -55 -115 0 -115 0 0 55 0 55 115 0 115 0 0 -55z m2070 0 l0 -55 -115 0 -115 0 0 55 0 55 115 0 115 0 0 -55z"/>
<path d="M1896 3104 c-20 -20 -20 -48 0 -68 34 -34 94 -9 94 39 0 41 -63 60 -94 29z"/>
<path d="M2338 2783 c-15 -17 -108 -560 -108 -627 0 -36 26 -46 125 -46 66 0 86 -3 83 -12 -3 -7 -31 -96 -62 -197 -48 -153 -56 -188 -47 -208 9 -19 17 -24 43 -21 29 3 52 31 275 336 238 326 263 368 231 389 -7 4 -54 10 -105 13 l-91 5 79 164 c43 90 79 170 79 177 0 7 -7 20 -16 28 -13 14 -49 16 -243 16 -205 0 -229 -2 -243 -17z m292 -243 c-79 -157 -92 -201 -67 -217 6 -4 49 -10 95 -13 l83 -5 -106 -145 c-59 -80 -111 -149 -116 -154 -4 -5 3 26 16 70 14 43 22 87 19 97 -8 27 -46 37 -135 37 -61 0 -79 3 -79 14 0 8 16 112 35 232 19 121 35 225 35 232 0 9 37 12 150 12 l150 0 -80 -160z"/>
</g>
</svg>