<svg xmlns="http://www.w3.org/2000/svg" version="1.0" width="512.000000pt" height="512.000000pt" viewBox="0 0 512.000000 512.000000" preserveAspectRatio="xMidYMid meet">

<g transform="translate(0.000000,512.000000) scale(0.100000,-0.100000)" fill="#000000" stroke="none">
<path d="M863 4657 c-280 -280 -303 -305 -303 -337 0 -31 16 -51 183 -217 200 -200 213 -208 272 -162 l27 22 61 -61 62 -62 -343 -343 -342 -343 0 -1154 0 -1155 343 -342 342 -343 1395 0 1395 0 342 343 343 342 0 1715 0 1715 -343 342 -342 343 -835 0 -834 0 -303 -302 -303 -303 -62 62 -61 61 22 27 c46 59 38 72 -162 272 -166 167 -186 183 -217 183 -32 0 -57 -23 -337 -303z m3320 -155 l297 -297 0 -1645 0 -1645 -298 -298 -297 -297 -1325 0 -1325 0 -297 297 -298 298 0 1085 0 1085 160 160 160 160 160 -160 160 -160 0 -765 0 -764 -240 -241 c-220 -221 -240 -244 -240 -275 0 -32 21 -56 263 -297 241 -242 265 -263 297 -263 31 0 54 20 275 240 l241 240 684 0 684 0 241 -240 c221 -220 244 -240 275 -240 32 0 56 21 297 263 242 241 263 265 263 297 0 31 -20 54 -240 275 l-240 241 0 764 0 764 240 241 c220 221 240 244 240 275 0 32 -21 56 -263 297 -241 242 -265 263 -297 263 -31 0 -54 -20 -275 -240 l-241 -240 -684 0 -685 0 -160 160 -160 160 400 400 400 400 765 0 765 0 298 -298z m-2878 158 l100 -100 -223 -223 -222 -222 -102 103 -103 102 220 220 c121 121 222 220 225 220 3 0 50 -45 105 -100z m200 -360 l60 -60 -143 -143 -142 -142 -62 63 -63 62 140 140 c77 77 142 140 145 140 3 0 32 -27 65 -60z m2440 -520 l180 -180 -223 -223 -222 -223 0 -834 0 -834 222 -223 223 -223 -183 -182 -182 -183 -223 223 -223 222 -754 0 -754 0 -223 -222 -223 -223 -182 183 -183 182 223 223 222 223 0 834 0 834 -182 183 -183 183 183 182 182 183 183 -183 183 -182 754 0 754 0 221 220 c121 121 222 220 225 220 3 0 86 -81 185 -180z"/>
<path d="M2400 4627 c-49 -16 -133 -102 -148 -153 -28 -94 -8 -169 63 -239 31 -32 65 -55 91 -63 30 -9 198 -12 636 -12 680 0 657 -2 731 80 90 100 90 220 0 320 -74 83 -50 80 -737 79 -408 -1 -612 -5 -636 -12z m1255 -172 c16 -15 25 -36 25 -55 0 -19 -9 -40 -25 -55 l-24 -25 -591 0 -591 0 -24 25 c-16 15 -25 36 -25 55 0 19 9 40 25 55 l24 25 591 0 591 0 24 -25z"/>
<path d="M1920 3920 l0 -80 640 0 640 0 0 80 0 80 -640 0 -640 0 0 -80z"/>
<path d="M960 2320 l0 -720 80 0 80 0 0 720 0 720 -80 0 -80 0 0 -720z"/>
<path d="M4000 2320 l0 -720 80 0 80 0 0 720 0 720 -80 0 -80 0 0 -720z"/>
<path d="M1920 720 l0 -80 640 0 640 0 0 80 0 80 -640 0 -640 0 0 -80z"/>
<path d="M2602 3193 c-26 -10 -229 -329 -360 -563 -205 -369 -267 -575 -228 -760 72 -345 415 -567 761 -495 296 62 521 351 502 645 -13 197 -182 549 -490 1023 -49 76 -98 142 -108 147 -19 11 -55 12 -77 3z m130 -361 c229 -367 370 -661 384 -801 19 -179 -93 -374 -261 -457 -279 -138 -603 13 -681 317 -38 148 18 321 215 673 84 149 242 406 251 406 3 0 45 -62 92 -138z"/>
</g>
</svg>