<svg xmlns="http://www.w3.org/2000/svg" version="1.0" width="512.000000pt" height="512.000000pt" viewBox="0 0 512.000000 512.000000" preserveAspectRatio="xMidYMid meet">

<g transform="translate(0.000000,512.000000) scale(0.100000,-0.100000)" fill="#000000" stroke="none">
<path d="M859 5092 c-69 -36 -106 -88 -119 -167 -13 -78 -13 -982 0 -1060 13 -79 50 -131 119 -167 53 -28 54 -28 250 -28 185 0 199 1 247 24 52 24 94 68 114 120 5 15 13 68 17 117 l6 89 121 0 c86 1 126 5 139 14 20 15 37 66 37 108 l0 28 195 0 195 0 0 -103 c0 -163 17 -196 103 -197 l47 0 0 -235 0 -235 -73 0 c-168 0 -250 -66 -270 -220 l-11 -80 -117 0 c-110 0 -120 -2 -146 -24 l-28 -24 -3 -389 c-2 -213 0 -407 3 -431 11 -75 26 -82 168 -82 l123 0 11 -80 c12 -94 41 -145 104 -187 37 -24 53 -28 140 -31 l99 -4 0 -299 0 -299 -47 0 c-86 -1 -103 -34 -103 -197 l0 -103 -195 0 -195 0 0 28 c0 42 -17 93 -37 108 -13 9 -53 13 -139 14 l-121 0 -6 89 c-4 49 -12 102 -17 117 -20 52 -62 96 -114 120 -48 23 -62 24 -247 24 -196 0 -197 0 -250 -28 -69 -36 -106 -88 -119 -167 -13 -78 -13 -982 0 -1060 13 -79 50 -131 119 -167 53 -28 54 -28 250 -28 185 0 199 1 247 24 52 24 94 68 114 120 5 15 13 68 17 117 l6 89 121 0 c86 1 126 5 139 14 20 15 37 66 37 108 l0 28 195 0 195 0 0 -72 c0 -173 33 -250 129 -300 53 -28 54 -28 250 -28 196 0 198 0 252 27 95 49 129 127 129 301 l0 72 195 0 195 0 0 -28 c0 -42 17 -93 37 -108 13 -9 53 -13 139 -14 l121 0 7 -92 c7 -106 31 -165 80 -203 66 -50 92 -55 299 -55 191 0 194 0 248 28 69 35 106 87 119 167 13 78 13 982 0 1060 -13 80 -50 132 -119 168 -54 27 -57 27 -248 27 -207 0 -233 -5 -299 -55 -49 -38 -73 -97 -80 -203 l-7 -92 -121 0 c-86 -1 -126 -5 -139 -14 -20 -15 -37 -66 -37 -108 l0 -28 -195 0 -195 0 0 103 c0 163 -17 196 -102 197 l-48 0 0 299 0 299 99 4 c87 3 103 7 140 31 63 42 92 93 104 187 l11 80 123 0 c142 0 157 7 168 82 3 24 5 218 3 431 l-3 389 -28 24 c-26 22 -36 24 -146 24 l-119 0 -7 68 c-16 157 -104 232 -272 232 l-73 0 0 235 0 235 48 0 c85 1 102 34 102 197 l0 103 195 0 195 0 0 -28 c0 -42 17 -93 37 -108 13 -9 53 -13 139 -14 l121 0 7 -92 c7 -106 31 -165 80 -203 66 -50 92 -55 299 -55 191 0 194 0 248 28 69 35 106 87 119 167 5 33 10 270 10 530 0 260 -5 497 -10 530 -13 80 -50 132 -119 168 -54 27 -57 27 -248 27 -207 0 -233 -5 -299 -55 -49 -38 -73 -97 -80 -203 l-7 -92 -121 0 c-86 -1 -126 -5 -139 -14 -20 -15 -37 -66 -37 -108 l0 -28 -195 0 -195 0 0 73 c0 173 -34 251 -129 300 -54 27 -56 27 -252 27 -196 0 -197 0 -250 -28 -96 -50 -129 -127 -129 -299 l0 -73 -195 0 -195 0 0 28 c0 42 -17 93 -37 108 -13 9 -53 13 -139 14 l-121 0 -6 89 c-4 49 -12 102 -17 117 -20 52 -62 96 -114 120 -48 23 -62 24 -247 24 -196 0 -197 0 -250 -28z m449 -142 l22 -21 0 -534 0 -534 -22 -21 c-20 -19 -34 -20 -198 -20 -220 0 -220 0 -220 120 l0 80 73 0 c88 0 117 19 117 75 0 56 -29 75 -117 75 l-73 0 0 75 0 75 73 0 c88 0 117 19 117 75 0 56 -29 75 -117 75 l-73 0 0 75 0 75 73 0 c88 0 117 19 117 75 0 56 -29 75 -117 75 l-73 0 0 80 c0 120 0 120 220 120 164 0 178 -1 198 -20z m2900 0 c19 -18 22 -31 22 -100 l0 -80 -73 0 c-88 0 -117 -19 -117 -75 0 -56 29 -75 117 -75 l73 0 0 -75 0 -75 -73 0 c-88 0 -117 -19 -117 -75 0 -56 29 -75 117 -75 l73 0 0 -75 0 -75 -73 0 c-88 0 -117 -19 -117 -75 0 -56 29 -75 117 -75 l73 0 0 -80 c0 -120 0 -120 -220 -120 -164 0 -178 1 -198 20 l-22 21 0 534 0 534 22 21 c20 19 34 20 198 20 164 0 178 -1 198 -20z m-1450 -100 c22 -21 22 -22 22 -425 l0 -405 -220 0 -220 0 0 405 c0 403 0 404 22 425 20 19 34 20 198 20 164 0 178 -1 198 -20z m-1128 -455 l0 -225 -70 0 -70 0 0 225 0 225 70 0 70 0 0 -225z m2000 0 l0 -225 -70 0 -70 0 0 225 0 225 70 0 70 0 0 -225z m-1450 0 l0 -75 -195 0 -195 0 0 75 0 75 195 0 195 0 0 -75z m1150 0 l0 -75 -195 0 -195 0 0 75 0 75 195 0 195 0 0 -75z m-700 -760 l0 -235 -70 0 -70 0 0 235 0 235 70 0 70 0 0 -235z m324 -406 l26 -20 0 -585 c0 -571 0 -584 -20 -604 -19 -19 -33 -20 -400 -20 -367 0 -381 1 -400 20 -20 20 -20 33 -20 604 l0 585 26 20 c26 20 38 21 394 21 356 0 368 -1 394 -21z m-974 -604 l0 -325 -70 0 -70 0 0 325 0 325 70 0 70 0 0 -325z m1300 0 l0 -325 -70 0 -70 0 0 325 0 325 70 0 70 0 0 -325z m-650 -1075 l0 -300 -70 0 -70 0 0 300 0 300 70 0 70 0 0 -300z m-1322 -270 l22 -21 0 -534 0 -534 -22 -21 c-20 -19 -34 -20 -198 -20 -220 0 -220 0 -220 120 l0 80 73 0 c88 0 117 19 117 75 0 56 -29 75 -117 75 l-73 0 0 75 0 75 73 0 c88 0 117 19 117 75 0 56 -29 75 -117 75 l-73 0 0 75 0 75 73 0 c88 0 117 19 117 75 0 56 -29 75 -117 75 l-73 0 0 80 c0 120 0 120 220 120 164 0 178 -1 198 -20z m2900 0 c19 -18 22 -31 22 -100 l0 -80 -73 0 c-88 0 -117 -19 -117 -75 0 -56 29 -75 117 -75 l73 0 0 -75 0 -75 -73 0 c-88 0 -117 -19 -117 -75 0 -56 29 -75 117 -75 l73 0 0 -75 0 -75 -73 0 c-88 0 -117 -19 -117 -75 0 -56 29 -75 117 -75 l73 0 0 -80 c0 -120 0 -120 -220 -120 -164 0 -178 1 -198 20 l-22 21 0 534 0 534 22 21 c20 19 34 20 198 20 164 0 178 -1 198 -20z m-1428 -585 c0 -403 0 -404 -22 -425 -20 -19 -34 -20 -198 -20 -164 0 -178 1 -198 20 -22 21 -22 22 -22 425 l0 405 220 0 220 0 0 -405z m-1150 30 l0 -225 -70 0 -70 0 0 225 0 225 70 0 70 0 0 -225z m2000 0 l0 -225 -70 0 -70 0 0 225 0 225 70 0 70 0 0 -225z m-1450 0 l0 -75 -195 0 -195 0 0 75 0 75 195 0 195 0 0 -75z m1150 0 l0 -75 -195 0 -195 0 0 75 0 75 195 0 195 0 0 -75z"/>
<path d="M2462 4600 c-14 -14 -22 -33 -22 -55 0 -57 29 -75 120 -75 91 0 120 18 120 75 0 57 -29 75 -120 75 -63 0 -80 -4 -98 -20z"/>
<path d="M2462 4300 c-14 -14 -22 -33 -22 -55 0 -57 29 -75 120 -75 91 0 120 18 120 75 0 57 -29 75 -120 75 -63 0 -80 -4 -98 -20z"/>
<path d="M2498 3091 c-48 -16 -94 -50 -122 -90 -40 -57 -48 -138 -44 -425 3 -247 3 -252 29 -301 85 -166 313 -166 398 0 l26 49 0 296 c0 215 -3 305 -13 331 -15 42 -69 102 -114 125 -36 19 -123 27 -160 15z m106 -162 l26 -20 0 -285 c0 -271 -1 -285 -20 -304 -11 -11 -33 -20 -50 -20 -17 0 -39 9 -50 20 -19 19 -20 33 -20 304 l0 285 26 20 c15 12 34 21 44 21 10 0 29 -9 44 -21z"/>
<path d="M2462 930 c-14 -14 -22 -33 -22 -55 0 -57 29 -75 120 -75 91 0 120 18 120 75 0 57 -29 75 -120 75 -63 0 -80 -4 -98 -20z"/>
<path d="M2462 630 c-14 -14 -22 -33 -22 -55 0 -57 29 -75 120 -75 91 0 120 18 120 75 0 57 -29 75 -120 75 -63 0 -80 -4 -98 -20z"/>
</g>
</svg>