<svg width="22" height="20" viewBox="0 0 22 20" fill="none" xmlns="http://www.w3.org/2000/svg">
<path fill-rule="evenodd" clip-rule="evenodd" d="M1.63152 0.292893C2.02204 -0.0976311 2.65521 -0.0976311 3.04573 0.292893L6.08602 3.33319C7.64759 2.483 9.43807 2 11.3391 2C16.266 2 20.4339 5.23846 21.8353 9.70039C21.8966 9.89546 21.8966 10.1046 21.8353 10.2997C21.1826 12.3778 19.931 14.1885 18.2838 15.531L21.0457 18.2929C21.4363 18.6834 21.4363 19.3166 21.0457 19.7071C20.6552 20.0976 20.022 20.0976 19.6315 19.7071L1.63152 1.70711C1.24099 1.31658 1.24099 0.683418 1.63152 0.292893ZM16.8606 14.1078C18.2076 13.0598 19.2483 11.6379 19.8272 10C18.5915 6.50345 15.2564 4 11.3391 4C9.99411 4 8.71964 4.29444 7.57506 4.82223L9.3068 6.55397C9.90224 6.20229 10.5972 6 11.3386 6C13.5478 6 15.3386 7.79086 15.3386 10C15.3386 10.7414 15.1363 11.4364 14.7847 12.0318L16.8606 14.1078ZM13.271 10.5182C13.3152 10.353 13.3386 10.1793 13.3386 10C13.3386 8.89543 12.4432 8 11.3386 8C11.1593 8 10.9856 8.02347 10.8204 8.06758L13.271 10.5182ZM3.96351 6.17378C4.4039 6.50706 4.49073 7.13424 4.15746 7.57463C3.60486 8.30483 3.16145 9.12134 2.8509 9.99997C4.08662 13.4965 7.42173 16 11.3391 16C11.9169 16 12.4811 15.9457 13.0272 15.8421C13.5698 15.7392 14.0931 16.0957 14.196 16.6383C14.2989 17.1809 13.9424 17.7042 13.3998 17.8071C12.7315 17.9338 12.0426 18 11.3391 18C6.41215 18 2.24422 14.7615 0.842825 10.2996C0.781558 10.1045 0.781559 9.89538 0.842827 9.70031C1.22474 8.48437 1.81173 7.36002 2.56265 6.36773C2.89593 5.92734 3.52311 5.8405 3.96351 6.17378Z" fill="#545F71"/>
</svg>
