<svg width="20" height="19" viewBox="0 0 20 19" fill="none" xmlns="http://www.w3.org/2000/svg">
<path fill-rule="evenodd" clip-rule="evenodd" d="M17.0465 2.29289C16.6559 1.90237 16.0228 1.90237 15.6322 2.29289L7.33936 10.5858L7.33936 12H8.75357L17.0465 3.70711C17.437 3.31658 17.437 2.68342 17.0465 2.29289ZM14.218 0.87868C15.3896 -0.292893 17.2891 -0.292893 18.4607 0.87868C19.6322 2.05025 19.6322 3.94975 18.4607 5.12132L9.87489 13.7071C9.68735 13.8946 9.433 14 9.16778 14H6.33936C5.78707 14 5.33936 13.5523 5.33936 13L5.33936 10.1716C5.33936 9.90636 5.44471 9.652 5.63225 9.46447L14.218 0.87868ZM3.33936 4C2.78707 4 2.33936 4.44772 2.33936 5V16C2.33936 16.5523 2.78707 17 3.33936 17H14.3394C14.8916 17 15.3394 16.5523 15.3394 16V11C15.3394 10.4477 15.7871 10 16.3394 10C16.8916 10 17.3394 10.4477 17.3394 11V16C17.3394 17.6569 15.9962 19 14.3394 19H3.33936C1.6825 19 0.339355 17.6569 0.339355 16V5C0.339355 3.34315 1.6825 2 3.33936 2H8.33936C8.89164 2 9.33936 2.44772 9.33936 3C9.33936 3.55229 8.89164 4 8.33936 4H3.33936Z" fill="#545F71"/>
</svg>
