<svg xmlns="http://www.w3.org/2000/svg" version="1.0" width="512.000000pt" height="512.000000pt" viewBox="0 0 512.000000 512.000000" preserveAspectRatio="xMidYMid meet">

<g transform="translate(0.000000,512.000000) scale(0.100000,-0.100000)" fill="#000000" stroke="none">
<path d="M2226 4789 c-62 -15 -153 -68 -197 -116 -56 -61 -98 -155 -106 -236 -5 -61 -4 -67 20 -91 l26 -26 296 0 295 0 0 -160 0 -160 -334 0 c-303 0 -336 -2 -354 -17 -11 -10 -71 -137 -133 -283 -62 -146 -114 -267 -115 -269 -2 -1 -144 -38 -316 -81 -251 -63 -316 -83 -330 -101 -16 -19 -18 -46 -18 -235 l0 -214 -159 0 -159 0 -4 208 -3 208 -37 76 c-64 129 -182 212 -321 225 -61 5 -67 4 -91 -20 l-26 -26 0 -231 0 -231 25 -24 c32 -33 78 -33 110 0 25 24 25 27 25 190 0 193 1 195 83 113 34 -34 57 -68 65 -94 9 -31 12 -218 12 -728 0 -616 -2 -686 -16 -686 -27 0 -119 101 -132 146 -8 29 -12 155 -12 433 l0 392 -25 24 c-32 33 -78 33 -111 0 l-25 -25 3 -423 3 -423 37 -76 c64 -129 182 -212 321 -225 61 -5 67 -4 91 20 l26 26 0 336 0 335 160 0 160 0 0 -214 c0 -194 2 -216 19 -237 16 -20 47 -28 256 -63 l238 -41 194 -310 c106 -170 201 -316 210 -323 13 -9 182 -12 765 -12 l749 0 24 25 c33 32 33 78 0 110 l-24 25 -714 0 -714 0 -194 311 c-107 172 -203 315 -214 320 -11 5 -103 22 -205 39 -102 17 -195 32 -207 35 -22 5 -23 10 -23 90 l0 85 135 0 c131 0 137 1 160 25 33 32 33 78 0 110 -23 24 -29 25 -160 25 l-135 0 0 80 0 80 135 0 c131 0 137 1 160 25 33 32 33 78 0 110 -23 24 -29 25 -160 25 l-135 0 0 80 0 80 135 0 c131 0 137 1 160 25 33 32 33 78 0 110 -23 24 -29 25 -160 25 l-135 0 0 89 0 89 293 72 c160 40 301 78 312 85 13 8 62 111 134 279 l113 266 510 0 509 0 24 25 c25 24 25 24 25 239 l0 214 168 4 c163 3 168 4 234 35 37 17 87 50 112 74 63 57 114 163 123 251 5 62 4 68 -20 92 l-26 26 -683 -1 c-376 -1 -700 -5 -722 -10z m1274 -165 c0 -27 -101 -119 -146 -132 -30 -9 -201 -12 -648 -12 -543 0 -606 2 -606 16 0 24 101 119 140 131 24 7 232 11 648 12 549 1 612 -1 612 -15z m-620 -464 l0 -160 -80 0 -80 0 0 160 0 160 80 0 80 0 0 -160z m-1920 -1600 l0 -80 -160 0 -160 0 0 80 0 80 160 0 160 0 0 -80z"/>
<path d="M3225 3975 c-30 -29 -32 -74 -6 -106 19 -23 24 -24 216 -29 l196 -5 190 -420 c105 -231 200 -428 211 -437 17 -15 41 -18 154 -18 l134 0 0 -80 0 -80 -95 0 c-88 0 -98 -2 -120 -25 -33 -32 -33 -78 0 -110 22 -23 32 -25 120 -25 l95 0 0 -80 0 -80 -95 0 c-88 0 -98 -2 -120 -25 -33 -32 -33 -78 0 -110 22 -23 32 -25 120 -25 l95 0 0 -80 0 -80 -135 0 c-131 0 -137 -1 -160 -25 l-25 -24 0 -416 0 -415 -175 0 c-173 0 -176 0 -200 -25 -33 -32 -33 -78 0 -110 l24 -25 231 0 231 0 24 25 25 24 0 416 0 415 80 0 80 0 0 -175 c0 -175 0 -176 26 -202 25 -25 26 -25 168 -22 141 4 143 5 218 41 91 45 147 103 191 196 l32 67 0 656 0 655 -37 76 c-45 91 -103 147 -196 191 -63 30 -75 32 -209 35 -141 4 -142 4 -167 -21 -23 -23 -26 -34 -26 -97 0 -62 3 -74 25 -95 15 -16 36 -25 55 -25 33 0 80 38 80 65 0 19 92 21 154 3 55 -16 138 -99 154 -154 17 -59 17 -1209 0 -1268 -16 -55 -99 -138 -154 -154 -23 -7 -67 -12 -98 -12 l-56 0 0 654 c0 628 -1 655 -19 677 -18 23 -26 24 -176 29 l-156 5 -190 420 c-105 231 -200 428 -211 438 -18 15 -46 17 -250 17 l-229 0 -24 -25z"/>
<path d="M2346 3659 c-21 -17 -26 -29 -26 -65 0 -40 -3 -46 -41 -69 l-40 -26 -33 21 c-43 26 -69 25 -101 -2 -29 -26 -184 -290 -191 -329 -6 -28 32 -83 66 -94 29 -9 29 -101 0 -110 -34 -11 -72 -66 -66 -94 7 -39 162 -303 191 -328 32 -28 50 -29 98 -3 l37 20 40 -25 c36 -23 40 -29 40 -66 0 -29 7 -47 25 -64 24 -25 26 -25 210 -25 l187 0 29 29 c22 22 29 39 29 68 0 34 5 41 38 60 45 25 63 18 82 -29 7 -18 20 -41 29 -51 22 -26 134 -87 160 -87 23 0 127 55 138 73 4 6 9 27 13 47 l5 35 75 3 75 3 15 -48 c13 -40 23 -52 70 -80 54 -33 81 -36 135 -19 17 6 26 -4 59 -60 28 -50 35 -69 25 -73 -7 -2 -23 -14 -36 -27 -20 -20 -23 -33 -23 -95 0 -69 1 -73 34 -104 l34 -32 -35 -64 c-20 -35 -37 -65 -38 -67 -1 -1 -19 5 -39 13 -37 16 -40 15 -89 -11 -70 -35 -94 -59 -101 -100 l-7 -34 -79 0 -80 0 0 33 c0 40 -23 63 -97 101 -49 26 -52 27 -89 11 -20 -8 -38 -14 -39 -13 -1 2 -18 32 -38 67 l-35 64 34 32 c32 31 34 36 34 103 0 84 -8 96 -102 147 -75 41 -115 41 -143 2 -31 -44 -16 -93 40 -127 l35 -21 -43 -33 c-64 -49 -62 -63 35 -234 45 -81 93 -157 105 -169 27 -28 68 -29 111 -3 18 11 35 20 37 20 3 0 5 -22 5 -48 0 -38 5 -53 23 -70 22 -21 32 -22 213 -22 186 0 191 1 212 23 13 13 25 43 28 69 l6 46 32 -19 c39 -24 78 -24 104 -1 27 23 192 311 192 335 0 29 -18 55 -57 81 l-36 25 37 22 c40 23 56 46 56 79 0 20 -147 285 -179 324 -29 34 -60 38 -105 16 -23 -11 -45 -20 -49 -20 -4 0 -7 20 -7 44 0 28 -7 52 -19 67 -19 24 -21 24 -215 24 -186 0 -196 -1 -217 -21 -13 -14 -23 -39 -26 -68 -7 -58 -20 -55 -56 12 -22 40 -41 59 -88 87 -73 42 -112 45 -160 9 -19 -14 -57 -37 -86 -50 -55 -25 -73 -47 -73 -88 0 -26 -1 -26 -79 -26 l-79 0 -6 35 c-7 34 -46 75 -71 75 -7 0 -37 16 -66 36 -74 49 -89 54 -126 39 l-32 -13 -40 66 -40 67 30 23 29 23 0 129 0 129 -29 23 -30 23 40 67 40 66 32 -13 c37 -15 52 -10 126 39 29 20 59 36 66 36 25 0 64 41 71 75 l6 35 79 0 79 0 0 -30 c0 -33 38 -80 63 -80 8 0 43 -19 77 -41 63 -42 107 -52 134 -30 16 13 20 9 64 -70 l31 -55 -29 -26 c-28 -25 -29 -26 -29 -139 0 -63 3 -122 5 -131 7 -24 134 -98 168 -98 36 0 76 41 76 78 0 34 -15 56 -54 80 -24 14 -29 24 -30 61 -1 40 2 47 32 64 74 44 70 70 -41 262 -79 137 -96 161 -123 168 -24 7 -40 4 -70 -11 l-39 -20 -36 21 c-32 18 -38 27 -42 66 -4 33 -12 52 -32 68 -25 22 -33 23 -209 23 -170 0 -185 -1 -210 -21z"/>
<path d="M3305 3655 c-14 -13 -25 -35 -25 -47 0 -13 38 -138 85 -278 58 -176 91 -260 106 -272 17 -15 41 -18 131 -18 102 0 110 1 133 25 30 29 32 74 6 106 -16 20 -31 25 -92 29 l-72 5 -74 220 c-49 150 -80 226 -94 238 -30 25 -75 22 -104 -8z"/>
<path d="M2477 3266 c-60 -22 -104 -62 -132 -121 -55 -111 -16 -244 89 -310 43 -26 59 -30 120 -30 86 0 143 27 192 92 115 151 16 365 -175 379 -33 3 -71 -1 -94 -10z m134 -175 c16 -16 29 -39 29 -51 0 -30 -53 -80 -85 -80 -36 0 -75 41 -75 80 0 39 39 80 75 80 16 0 38 -12 56 -29z"/>
<path d="M3267 2374 c-92 -29 -159 -123 -159 -223 -1 -75 25 -133 79 -181 74 -65 168 -78 258 -36 89 41 135 115 135 213 -1 164 -156 277 -313 227z m136 -176 c39 -47 5 -128 -55 -128 -42 0 -64 15 -77 51 -28 81 76 143 132 77z"/>
<path d="M2146 2310 c-63 -16 -153 -70 -197 -117 -22 -24 -55 -74 -72 -111 -29 -61 -32 -76 -32 -163 0 -90 2 -99 37 -171 45 -91 103 -147 196 -191 61 -29 76 -32 162 -32 86 0 101 3 162 32 93 44 151 100 196 191 35 72 37 81 37 172 0 91 -2 100 -37 172 -68 136 -188 217 -336 224 -42 2 -94 -1 -116 -6z m14 -240 l0 -70 -70 0 c-38 0 -70 2 -70 5 0 36 96 133 133 135 4 0 7 -31 7 -70z m198 56 c41 -21 102 -94 102 -120 0 -3 -31 -6 -70 -6 l-70 0 0 70 c0 39 2 70 5 70 4 0 18 -6 33 -14z m-198 -356 c0 -38 -3 -70 -6 -70 -36 0 -134 98 -134 135 0 3 32 5 70 5 l70 0 0 -70z m300 64 c0 -36 -98 -134 -135 -134 -3 0 -5 32 -5 70 l0 70 70 0 c39 0 70 -3 70 -6z"/>
<path d="M2665 1575 c-16 -15 -25 -36 -25 -55 0 -19 9 -40 25 -55 23 -24 31 -25 135 -25 104 0 112 1 135 25 16 15 25 36 25 55 0 19 -9 40 -25 55 -23 24 -31 25 -135 25 -104 0 -112 -1 -135 -25z"/>
</g>
</svg>