<svg viewBox="0 0 21 20" fill="none" xmlns="http://www.w3.org/2000/svg">
<path fill-rule="evenodd" clip-rule="evenodd" d="M10.3398 2C5.92157 2 2.33984 5.58172 2.33984 10C2.33984 14.4183 5.92157 18 10.3398 18C14.7581 18 18.3398 14.4183 18.3398 10C18.3398 5.58172 14.7581 2 10.3398 2ZM0.339844 10C0.339844 4.47715 4.817 0 10.3398 0C15.8627 0 20.3398 4.47715 20.3398 10C20.3398 15.5228 15.8627 20 10.3398 20C4.817 20 0.339844 15.5228 0.339844 10ZM7.63274 7.29289C8.02326 6.90237 8.65643 6.90237 9.04695 7.29289L10.3398 8.58579L11.6327 7.29289C12.0233 6.90237 12.6564 6.90237 13.047 7.29289C13.4375 7.68342 13.4375 8.31658 13.047 8.70711L11.7541 10L13.0469 11.2929C13.4375 11.6834 13.4375 12.3166 13.0469 12.7071C12.6564 13.0976 12.0233 13.0976 11.6327 12.7071L10.3398 11.4142L9.04695 12.7071C8.65643 13.0976 8.02326 13.0976 7.63274 12.7071C7.24221 12.3166 7.24221 11.6834 7.63274 11.2929L8.92563 10L7.63274 8.70711C7.24221 8.31658 7.24221 7.68342 7.63274 7.29289Z" fill="#545F71"/>
</svg>

