<svg width="23" height="18" viewBox="0 0 23 18" fill="none" xmlns="http://www.w3.org/2000/svg">
<path fill-rule="evenodd" clip-rule="evenodd" d="M11.3398 2C10.2353 2 9.33984 2.89543 9.33984 4C9.33984 5.10457 10.2353 6 11.3398 6C12.4444 6 13.3398 5.10457 13.3398 4C13.3398 2.89543 12.4444 2 11.3398 2ZM7.33984 4C7.33984 1.79086 9.1307 0 11.3398 0C13.549 0 15.3398 1.79086 15.3398 4C15.3398 6.20914 13.549 8 11.3398 8C9.1307 8 7.33984 6.20914 7.33984 4ZM4.33984 6C3.78756 6 3.33984 6.44772 3.33984 7C3.33984 7.55228 3.78756 8 4.33984 8C4.89213 8 5.33984 7.55228 5.33984 7C5.33984 6.44772 4.89213 6 4.33984 6ZM1.33984 7C1.33984 5.34315 2.68299 4 4.33984 4C5.9967 4 7.33984 5.34315 7.33984 7C7.33984 8.65685 5.9967 10 4.33984 10C2.68299 10 1.33984 8.65685 1.33984 7ZM18.3398 6C17.7876 6 17.3398 6.44772 17.3398 7C17.3398 7.55228 17.7876 8 18.3398 8C18.8921 8 19.3398 7.55228 19.3398 7C19.3398 6.44772 18.8921 6 18.3398 6ZM15.3398 7C15.3398 5.34315 16.683 4 18.3398 4C19.9967 4 21.3398 5.34315 21.3398 7C21.3398 8.65685 19.9967 10 18.3398 10C16.683 10 15.3398 8.65685 15.3398 7ZM11.3398 11C9.65727 11 8.215 12.0392 7.62448 13.5145C7.44117 13.9725 7.33984 14.4732 7.33984 15V16H15.3398V15C15.3398 14.4732 15.2385 13.9725 15.0552 13.5145C14.4647 12.0392 13.0224 11 11.3398 11ZM17.3398 16H20.3398V15C20.3398 13.8954 19.4444 13 18.3398 13C17.8838 13 17.4635 13.1521 17.1266 13.4097C17.2657 13.917 17.3398 14.4504 17.3398 15V16ZM16.2685 11.5777C15.1853 10.0206 13.3825 9 11.3398 9C9.29715 9 7.49439 10.0206 6.41122 11.5777C5.80726 11.2114 5.09814 11 4.33984 11C2.1307 11 0.339844 12.7909 0.339844 15V17C0.339844 17.5523 0.787559 18 1.33984 18H21.3398C21.8921 18 22.3398 17.5523 22.3398 17V15C22.3398 12.7909 20.549 11 18.3398 11C17.5816 11 16.8724 11.2114 16.2685 11.5777ZM5.55312 13.4097C5.21616 13.1521 4.79591 13 4.33984 13C3.23527 13 2.33984 13.8954 2.33984 15V16H5.33984V15C5.33984 14.4504 5.41398 13.917 5.55312 13.4097Z" fill="#545F71"/>
</svg>
