<svg width="21" height="20" viewBox="0 0 21 20" fill="none" xmlns="http://www.w3.org/2000/svg">
<path fill-rule="evenodd" clip-rule="evenodd" d="M9.63225 0.292893C10.0228 -0.0976311 10.6559 -0.0976311 11.0465 0.292893L20.0465 9.29289C20.437 9.68342 20.437 10.3166 20.0465 10.7071C19.6559 11.0976 19.0228 11.0976 18.6322 10.7071L18.3394 10.4142V18C18.3394 19.1046 17.4439 20 16.3394 20H4.33936C3.23479 20 2.33936 19.1046 2.33936 18V10.4142L2.04646 10.7071C1.65594 11.0976 1.02277 11.0976 0.632249 10.7071C0.241724 10.3166 0.241724 9.68342 0.632249 9.29289L9.63225 0.292893ZM4.33936 8.41421V18H7.33936V14C7.33936 12.8954 8.23479 12 9.33936 12H11.3394C12.4439 12 13.3394 12.8954 13.3394 14V18H16.3394V8.41421L10.3394 2.41421L4.33936 8.41421ZM11.3394 18V14H9.33936V18H11.3394Z" fill="#545F71"/>
</svg>
