<svg width="19" height="18" viewBox="0 0 19 18" fill="none" xmlns="http://www.w3.org/2000/svg">
<path fill-rule="evenodd" clip-rule="evenodd" d="M0.339844 3C0.339844 1.34315 1.68299 0 3.33984 0H15.3398C16.9967 0 18.3398 1.34315 18.3398 3V10.999C18.3398 10.9997 18.3398 11.0003 18.3398 11.001V15C18.3398 16.6569 16.9967 18 15.3398 18H3.33984C1.68299 18 0.339844 16.6569 0.339844 15V13.0002C0.339844 13.0001 0.339844 12.9999 0.339844 12.9998V3ZM2.33984 13.4142V15C2.33984 15.5523 2.78756 16 3.33984 16H15.3398C15.8921 16 16.3398 15.5523 16.3398 15V11.4142L15.047 10.1213C14.6564 9.7308 14.0233 9.7308 13.6327 10.1213L12.7541 11L14.047 12.2929C14.4375 12.6834 14.4375 13.3166 14.047 13.7071C13.6564 14.0976 13.0233 14.0976 12.6327 13.7071L10.6331 11.7075C10.633 11.7074 10.6329 11.7072 10.6327 11.7071C10.6326 11.707 10.6325 11.7068 10.6323 11.7067L8.04695 9.12132C7.65643 8.7308 7.02326 8.7308 6.63274 9.12132L2.33984 13.4142ZM11.3398 9.58579L9.46116 7.70711C8.28959 6.53553 6.39009 6.53553 5.21852 7.70711L2.33984 10.5858V3C2.33984 2.44772 2.78756 2 3.33984 2H15.3398C15.8921 2 16.3398 2.44772 16.3398 3V8.59225C15.1619 7.53687 13.3505 7.57516 12.2185 8.70711L11.3398 9.58579ZM10.3398 5C10.3398 4.44772 10.7876 4 11.3398 4H11.3498C11.9021 4 12.3498 4.44772 12.3498 5C12.3498 5.55228 11.9021 6 11.3498 6H11.3398C10.7876 6 10.3398 5.55228 10.3398 5Z" fill="#545F71"/>
</svg>
