<svg width="19" height="20" viewBox="0 0 19 20" fill="none" xmlns="http://www.w3.org/2000/svg">
<path fill-rule="evenodd" clip-rule="evenodd" d="M4.33984 5C4.33984 2.23858 6.57842 0 9.33984 0C12.1013 0 14.3398 2.23858 14.3398 5V8H15.3398C16.9967 8 18.3398 9.34315 18.3398 11V17C18.3398 18.6569 16.9967 20 15.3398 20H3.33984C1.68299 20 0.339844 18.6569 0.339844 17V11C0.339844 9.34315 1.68299 8 3.33984 8H4.33984V5ZM6.33984 8H12.3398V5C12.3398 3.34315 10.9967 2 9.33984 2C7.68299 2 6.33984 3.34315 6.33984 5V8ZM3.33984 10C2.78756 10 2.33984 10.4477 2.33984 11V17C2.33984 17.5523 2.78756 18 3.33984 18H15.3398C15.8921 18 16.3398 17.5523 16.3398 17V11C16.3398 10.4477 15.8921 10 15.3398 10H3.33984ZM9.33984 12C9.89213 12 10.3398 12.4477 10.3398 13V15C10.3398 15.5523 9.89213 16 9.33984 16C8.78756 16 8.33984 15.5523 8.33984 15V13C8.33984 12.4477 8.78756 12 9.33984 12Z" fill="#545F71"/>
</svg>
