<svg width="21" height="18" viewBox="0 0 21 18" fill="none" xmlns="http://www.w3.org/2000/svg">
<path fill-rule="evenodd" clip-rule="evenodd" d="M4.33984 2C3.23527 2 2.33984 2.89543 2.33984 4V14C2.33984 15.1046 3.23527 16 4.33984 16H11.3398C12.4444 16 13.3398 15.1046 13.3398 14V13C13.3398 12.4477 13.7876 12 14.3398 12C14.8921 12 15.3398 12.4477 15.3398 13V14C15.3398 16.2091 13.549 18 11.3398 18H4.33984C2.1307 18 0.339844 16.2091 0.339844 14V4C0.339844 1.79086 2.1307 0 4.33984 0H11.3398C13.549 0 15.3398 1.79086 15.3398 4V5C15.3398 5.55228 14.8921 6 14.3398 6C13.7876 6 13.3398 5.55228 13.3398 5V4C13.3398 2.89543 12.4444 2 11.3398 2H4.33984ZM10.047 4.29289C10.4375 4.68342 10.4375 5.31658 10.047 5.70711L7.75406 8L19.3398 8C19.8921 8 20.3398 8.44771 20.3398 9C20.3398 9.55228 19.8921 10 19.3398 10L7.75406 10L10.047 12.2929C10.4375 12.6834 10.4375 13.3166 10.047 13.7071C9.65643 14.0976 9.02326 14.0976 8.63274 13.7071L4.63274 9.70711C4.24221 9.31658 4.24221 8.68342 4.63274 8.29289L8.63274 4.29289C9.02326 3.90237 9.65643 3.90237 10.047 4.29289Z" fill="#545F71"/>
</svg>
