<svg width="21" height="16" viewBox="0 0 21 16" fill="none" xmlns="http://www.w3.org/2000/svg">
<path fill-rule="evenodd" clip-rule="evenodd" d="M0.338973 3C0.338973 1.34315 1.68212 0 3.33897 0H17.339C18.9958 0 20.339 1.34315 20.339 3V3.98448C20.3391 3.99422 20.3391 4.00395 20.339 4.01368V13C20.339 14.6569 18.9958 16 17.339 16H3.33897C1.68212 16 0.338973 14.6569 0.338973 13V4.01367C0.338832 4.00395 0.338832 3.99422 0.338973 3.98449V3ZM2.33897 5.86852V13C2.33897 13.5523 2.78669 14 3.33897 14H17.339C17.8913 14 18.339 13.5523 18.339 13V5.86852L12.0031 10.0925C10.9954 10.7642 9.68257 10.7642 8.67487 10.0925L2.33897 5.86852ZM18.339 3.46482L10.8937 8.42835C10.5578 8.65228 10.1202 8.65228 9.78427 8.42835L2.33897 3.46482V3C2.33897 2.44772 2.78669 2 3.33897 2H17.339C17.8913 2 18.339 2.44772 18.339 3V3.46482Z" fill="#545F71"/>
</svg>
