<svg width="19" height="14" viewBox="0 0 19 14" fill="none" xmlns="http://www.w3.org/2000/svg">
<path fill-rule="evenodd" clip-rule="evenodd" d="M0.339355 1C0.339355 0.447715 0.787071 0 1.33936 0H17.3394C17.8916 0 18.3394 0.447715 18.3394 1C18.3394 1.55228 17.8916 2 17.3394 2H1.33936C0.787071 2 0.339355 1.55228 0.339355 1ZM0.339355 5C0.339355 4.44772 0.787071 4 1.33936 4H17.3394C17.8916 4 18.3394 4.44772 18.3394 5C18.3394 5.55228 17.8916 6 17.3394 6H1.33936C0.787071 6 0.339355 5.55228 0.339355 5ZM0.339355 9C0.339355 8.44772 0.787071 8 1.33936 8H17.3394C17.8916 8 18.3394 8.44772 18.3394 9C18.3394 9.55229 17.8916 10 17.3394 10H1.33936C0.787071 10 0.339355 9.55229 0.339355 9ZM0.339355 13C0.339355 12.4477 0.787071 12 1.33936 12H17.3394C17.8916 12 18.3394 12.4477 18.3394 13C18.3394 13.5523 17.8916 14 17.3394 14H1.33936C0.787071 14 0.339355 13.5523 0.339355 13Z" fill="#545F71"/>
</svg>
