<svg xmlns="http://www.w3.org/2000/svg" version="1.0" width="512.000000pt" height="512.000000pt" viewBox="0 0 512.000000 512.000000" preserveAspectRatio="xMidYMid meet">

<g transform="translate(0.000000,512.000000) scale(0.100000,-0.100000)" fill="#000000" stroke="none">
<path d="M315 5096 c-59 -28 -108 -76 -129 -128 -23 -54 -24 -704 -1 -747 20 -41 70 -79 110 -87 l35 -6 0 -553 0 -552 -58 -38 c-93 -62 -184 -162 -228 -251 l-39 -78 -3 -975 c-3 -1096 -6 -1045 70 -1162 158 -245 546 -421 1093 -495 180 -25 626 -25 808 -1 273 37 533 107 719 196 241 115 401 279 437 449 7 36 11 254 11 682 l0 630 878 0 c991 0 946 -3 1025 73 75 74 78 91 75 480 l-3 335 -31 39 c-21 26 -46 43 -80 55 l-49 16 0 573 0 573 35 9 c50 13 88 43 111 88 19 38 20 55 17 382 l-3 342 -28 47 c-31 53 -79 94 -134 114 -31 11 -438 13 -2313 13 l-2275 1 -50 -24z m4615 -166 c19 -19 20 -33 20 -330 l0 -310 -80 0 -80 0 0 250 0 250 -2145 0 -2145 0 -2 -247 -3 -248 -82 -3 -83 -3 0 304 c0 293 1 305 21 331 l20 26 2270 0 c2256 0 2269 0 2289 -20z m-4102 -802 l-3 -493 -162 -3 -163 -2 0 249 0 249 32 6 c43 8 92 48 112 89 13 29 16 69 16 216 l0 181 85 0 85 0 -2 -492z m492 -3 l0 -495 -165 0 -165 0 0 495 0 495 165 0 165 0 0 -495z m498 3 l-3 -493 -162 -3 -163 -2 0 495 0 495 165 0 165 0 -2 -492z m492 -3 l0 -495 -165 0 -165 0 0 495 0 495 165 0 165 0 0 -495z m500 0 l0 -495 -165 0 -165 0 0 495 0 495 165 0 165 0 0 -495z m490 0 l0 -495 -162 2 -163 3 -3 493 -2 492 165 0 165 0 0 -495z m500 0 l0 -495 -165 0 -165 0 0 495 0 495 165 0 165 0 0 -495z m490 0 l0 -495 -162 2 -163 3 -3 493 -2 492 165 0 165 0 0 -495z m330 334 c0 -88 5 -180 11 -204 14 -54 72 -111 123 -121 l36 -6 0 -249 0 -249 -165 0 -165 0 0 495 0 495 80 0 80 0 0 -161z m-3790 -1114 c0 -92 -3 -126 -12 -129 -7 -2 -82 -25 -165 -53 l-153 -50 0 179 0 178 165 0 165 0 0 -125z m490 36 l0 -88 -85 -7 c-46 -4 -120 -13 -165 -20 l-80 -13 0 109 0 108 165 0 165 0 0 -89z m498 2 c-2 -49 -6 -87 -10 -85 -5 1 -78 2 -163 2 l-155 0 0 85 0 85 165 0 166 0 -3 -87z m492 -39 c0 -126 0 -126 -22 -120 -17 5 -282 53 -305 56 -2 0 -3 43 -3 95 l0 95 165 0 165 0 0 -126z m500 -94 c0 -121 -2 -220 -4 -220 -2 0 -51 23 -109 50 -57 28 -129 59 -158 69 l-54 18 -3 151 -3 152 166 0 165 0 0 -220z m490 -275 l0 -495 -80 0 -80 0 0 58 c0 115 -37 208 -126 317 l-44 55 0 280 0 280 165 0 165 0 0 -495z m500 0 l0 -495 -165 0 -165 0 0 495 0 495 165 0 165 0 0 -495z m490 0 l0 -495 -165 0 -165 0 0 495 0 495 165 0 165 0 0 -495z m500 245 c0 -245 0 -250 -20 -250 -37 0 -97 -39 -121 -77 -23 -36 -24 -49 -27 -225 l-4 -188 -79 0 -79 0 0 495 0 495 165 0 165 0 0 -250z m-3000 -90 c506 -39 899 -174 1088 -374 66 -70 92 -124 92 -196 0 -72 -26 -126 -92 -196 -403 -427 -1702 -515 -2393 -161 -210 108 -315 227 -315 357 0 348 805 631 1620 570z m3160 -627 c0 -301 0 -307 -22 -330 l-21 -23 -884 0 -883 0 0 80 0 80 825 0 825 0 0 250 0 250 80 0 80 0 0 -307z m-4670 -372 c30 -21 92 -57 138 -80 l82 -41 0 -650 c0 -358 -4 -650 -8 -650 -21 0 -193 123 -235 169 -92 98 -87 54 -87 734 l0 599 28 -21 c15 -12 52 -39 82 -60z m2660 -1168 c-36 -73 -113 -147 -219 -210 -39 -24 -73 -43 -76 -43 -3 0 -5 292 -5 650 l0 649 92 48 c51 26 124 71 163 100 l70 53 3 -592 2 -593 -30 -62z m-2098 938 l148 -36 0 -658 0 -658 -37 7 c-45 8 -226 58 -265 73 l-28 11 0 656 c0 621 1 656 18 649 9 -4 83 -24 164 -44z m1636 -607 l-3 -657 -40 -14 c-40 -14 -263 -73 -277 -73 -5 0 -8 296 -8 658 l0 658 121 28 c66 15 137 34 157 41 20 8 40 14 45 14 4 1 6 -294 5 -655z m-1105 529 l117 -6 0 -660 0 -660 -127 7 c-71 3 -145 9 -165 12 l-38 7 0 660 0 660 48 -7 c26 -3 100 -9 165 -13z m607 -642 l0 -658 -42 -7 c-24 -3 -98 -9 -165 -12 l-123 -7 0 661 0 662 68 1 c37 1 99 5 137 9 39 4 82 8 98 8 l27 2 0 -659z m-1631 -580 c198 -116 482 -202 816 -247 163 -22 596 -25 760 -6 429 51 790 175 993 340 l55 45 -6 -32 c-41 -205 -381 -401 -841 -485 -189 -35 -322 -46 -556 -46 -234 0 -367 11 -556 46 -320 58 -582 168 -729 305 -64 61 -115 142 -115 186 0 22 4 20 54 -21 30 -25 86 -63 125 -85z"/>
<path d="M1270 2959 c-448 -49 -827 -198 -930 -364 l-22 -35 22 -35 c97 -157 434 -297 860 -357 127 -18 611 -17 740 0 421 59 758 198 856 353 l24 39 -24 39 c-96 151 -414 286 -821 347 -120 18 -581 27 -705 13z m655 -174 c158 -21 288 -50 408 -90 115 -40 262 -115 262 -135 0 -22 -149 -96 -280 -139 -227 -75 -442 -105 -745 -105 -302 0 -542 35 -758 108 -103 35 -235 97 -262 122 -20 19 -5 32 88 79 185 93 422 149 762 179 89 8 408 -4 525 -19z"/>
</g>
</svg>