<svg width="22" height="16" viewBox="0 0 22 16" fill="none" xmlns="http://www.w3.org/2000/svg">
<path fill-rule="evenodd" clip-rule="evenodd" d="M2.8509 7.99997C4.08661 11.4965 7.42173 14 11.3391 14C15.2564 14 18.5915 11.4966 19.8272 8.00003C18.5915 4.50345 15.2564 2 11.3391 2C7.42173 2 4.08663 4.50342 2.8509 7.99997ZM0.842827 7.70031C2.24424 3.23842 6.41216 0 11.3391 0C16.266 0 20.4339 3.23846 21.8353 7.70039C21.8966 7.89546 21.8966 8.10462 21.8353 8.29969C20.4339 12.7616 16.266 16 11.3391 16C6.41215 16 2.24422 12.7615 0.842825 8.29961C0.781558 8.10454 0.781559 7.89538 0.842827 7.70031ZM11.3386 6C10.2341 6 9.33862 6.89543 9.33862 8C9.33862 9.10457 10.2341 10 11.3386 10C12.4432 10 13.3386 9.10457 13.3386 8C13.3386 6.89543 12.4432 6 11.3386 6ZM7.33862 8C7.33862 5.79086 9.12948 4 11.3386 4C13.5478 4 15.3386 5.79086 15.3386 8C15.3386 10.2091 13.5478 12 11.3386 12C9.12948 12 7.33862 10.2091 7.33862 8Z" fill="#545F71"/>
</svg>
