<svg width="21" height="20" viewBox="0 0 21 20" fill="none" xmlns="http://www.w3.org/2000/svg">
<path fill-rule="evenodd" clip-rule="evenodd" d="M0.339844 3C0.339844 1.34315 1.68299 0 3.33984 0H6.61908C7.47994 0 8.24422 0.55086 8.51645 1.36755L10.0143 5.86098C10.329 6.80521 9.90155 7.83718 9.01133 8.28229L7.65478 8.96057C8.5414 10.5092 9.83065 11.7984 11.3793 12.6851L12.0576 11.3285C12.5027 10.4383 13.5346 10.0108 14.4789 10.3256L18.9723 11.8234C19.789 12.0956 20.3398 12.8599 20.3398 13.7208V17C20.3398 18.6569 18.9967 20 17.3398 20H16.3398C7.50329 20 0.339844 12.8366 0.339844 4V3ZM3.33984 2C2.78756 2 2.33984 2.44772 2.33984 3V4C2.33984 11.732 8.60786 18 16.3398 18H17.3398C17.8921 18 18.3398 17.5523 18.3398 17V13.7208L13.8464 12.2229L12.7178 14.4802C12.4778 14.9602 11.9016 15.1652 11.4123 14.9446C8.74528 13.7421 6.59771 11.5946 5.39522 8.92752C5.17463 8.43825 5.3796 7.86209 5.85964 7.62207L8.1169 6.49344L6.61908 2H3.33984Z" fill="#545F71"/>
</svg>
