<svg width="15" height="14" viewBox="0 0 15 14" fill="none" xmlns="http://www.w3.org/2000/svg">
<path fill-rule="evenodd" clip-rule="evenodd" d="M7.33984 0C7.89213 0 8.33984 0.447715 8.33984 1V6H13.3398C13.8921 6 14.3398 6.44772 14.3398 7C14.3398 7.55228 13.8921 8 13.3398 8H8.33984V13C8.33984 13.5523 7.89213 14 7.33984 14C6.78756 14 6.33984 13.5523 6.33984 13V8L1.33984 8C0.787559 8 0.339844 7.55228 0.339844 7C0.339844 6.44771 0.787559 6 1.33984 6L6.33984 6V1C6.33984 0.447715 6.78756 0 7.33984 0Z" fill="#545F71"/>
</svg>
