<svg viewBox="0 0 21 20" fill="none" xmlns="http://www.w3.org/2000/svg">
<path fill-rule="evenodd" clip-rule="evenodd" d="M10.3398 2C5.92157 2 2.33984 5.58172 2.33984 10C2.33984 14.4183 5.92157 18 10.3398 18C14.7581 18 18.3398 14.4183 18.3398 10C18.3398 5.58172 14.7581 2 10.3398 2ZM0.339844 10C0.339844 4.47715 4.817 0 10.3398 0C15.8627 0 20.3398 4.47715 20.3398 10C20.3398 15.5228 15.8627 20 10.3398 20C4.817 20 0.339844 15.5228 0.339844 10ZM14.047 7.29289C14.4375 7.68342 14.4375 8.31658 14.047 8.70711L10.047 12.7071C9.65643 13.0976 9.02326 13.0976 8.63274 12.7071L6.63274 10.7071C6.24221 10.3166 6.24221 9.68342 6.63274 9.29289C7.02326 8.90237 7.65643 8.90237 8.04695 9.29289L9.33984 10.5858L12.6327 7.29289C13.0233 6.90237 13.6564 6.90237 14.047 7.29289Z" fill="#545F71"/>
</svg>
