<svg xmlns="http://www.w3.org/2000/svg" version="1.0" width="512.000000pt" height="512.000000pt" viewBox="0 0 512.000000 512.000000" preserveAspectRatio="xMidYMid meet">

<g transform="translate(0.000000,512.000000) scale(0.100000,-0.100000)" fill="#000000" stroke="none">
<path d="M560 4947 c-49 -16 -133 -102 -148 -153 -17 -59 -17 -1209 0 -1268 16 -55 99 -138 154 -154 57 -17 571 -17 628 0 55 16 138 99 154 154 7 26 12 108 12 218 l0 176 200 0 200 0 0 -303 0 -302 -46 -55 c-107 -130 -182 -281 -226 -458 -31 -125 -31 -359 0 -484 44 -177 119 -328 226 -458 l46 -55 0 -302 0 -303 -200 0 -200 0 0 176 c0 110 -5 192 -12 218 -16 55 -99 138 -154 154 -57 17 -571 17 -628 0 -55 -16 -138 -99 -154 -154 -17 -59 -17 -1209 0 -1268 16 -55 99 -138 154 -154 28 -8 130 -12 316 -12 323 0 343 4 411 80 24 26 49 66 55 88 7 24 12 108 12 216 l0 176 438 0 438 0 49 -46 c26 -26 78 -60 114 -78 60 -28 75 -31 161 -31 86 0 101 3 161 31 36 18 88 52 114 78 l49 46 438 0 438 0 0 -176 c0 -110 5 -192 12 -218 16 -55 99 -138 154 -154 28 -8 130 -12 316 -12 323 0 343 4 411 80 24 26 49 66 55 88 17 57 17 1208 0 1266 -16 55 -99 138 -154 154 -57 17 -571 17 -628 0 -55 -16 -138 -99 -154 -154 -7 -26 -12 -108 -12 -218 l0 -176 -200 0 -200 0 0 303 0 302 46 55 c107 130 182 281 226 458 31 125 31 359 0 484 -44 177 -119 328 -226 458 l-46 55 0 302 0 303 200 0 200 0 0 -176 c0 -110 5 -192 12 -218 16 -55 99 -138 154 -154 28 -8 129 -12 314 -12 185 0 286 4 314 12 55 16 138 99 154 154 17 58 17 1209 0 1266 -6 22 -31 62 -55 88 -68 76 -88 80 -411 80 -186 0 -288 -4 -316 -12 -55 -16 -138 -99 -154 -154 -7 -26 -12 -108 -12 -218 l0 -176 -440 0 -440 0 -36 40 c-21 23 -68 56 -112 78 -72 35 -81 37 -171 37 -87 0 -102 -3 -162 -31 -36 -18 -88 -52 -114 -78 l-49 -46 -438 0 -438 0 0 176 c0 108 -5 192 -12 216 -6 22 -31 62 -55 88 -69 77 -88 80 -417 79 -174 -1 -294 -5 -316 -12z m615 -172 l25 -24 0 -591 0 -591 -25 -24 -24 -25 -271 0 -271 0 -24 25 -25 24 0 591 0 591 25 24 24 25 271 0 271 0 24 -25z m3360 0 l25 -24 0 -591 0 -591 -25 -24 -24 -25 -271 0 -271 0 -24 25 -25 24 0 591 0 591 25 24 24 25 271 0 271 0 24 -25z m-1901 -387 c86 -26 166 -136 166 -228 0 -124 -116 -240 -240 -240 -124 0 -240 116 -240 240 0 63 23 114 75 165 70 71 145 90 239 63z m-469 -228 l0 -80 -402 0 -403 0 0 80 0 80 403 0 402 0 0 -80z m1595 0 l0 -80 -402 0 -403 0 0 80 0 80 403 0 402 0 0 -80z m-1760 -447 l0 -208 -35 -22 c-19 -13 -37 -23 -40 -23 -3 0 -5 104 -5 230 l0 230 40 0 40 0 0 -207z m285 161 c26 -26 78 -60 114 -78 60 -28 75 -31 161 -31 86 0 101 3 161 31 36 18 88 52 114 78 41 38 55 46 87 46 l38 0 0 -166 0 -166 -22 6 c-189 56 -210 59 -378 59 -168 0 -189 -3 -377 -59 l-23 -6 0 166 0 166 38 0 c32 0 46 -8 87 -46z m915 -184 c0 -126 -2 -230 -5 -230 -3 0 -21 10 -40 23 l-35 22 0 208 0 207 40 0 40 0 0 -230z m-418 -259 c324 -84 573 -339 655 -668 23 -93 23 -313 0 -406 -83 -335 -339 -591 -674 -674 -93 -23 -313 -23 -406 0 -395 98 -671 429 -694 832 -25 445 292 846 734 930 103 19 282 13 385 -14z m-817 -1793 l35 -23 0 -207 0 -208 -40 0 -40 0 0 230 c0 127 2 230 5 230 3 0 21 -10 40 -22z m1235 -208 l0 -230 -40 0 -40 0 0 208 0 207 33 22 c17 12 35 22 40 22 4 1 7 -102 7 -229z m-2025 145 l25 -24 0 -591 0 -591 -25 -24 -24 -25 -271 0 -271 0 -24 25 -25 24 0 591 0 591 25 24 24 25 271 0 271 0 24 -25z m3360 0 l25 -24 0 -591 0 -591 -25 -24 -24 -25 -271 0 -271 0 -24 25 -25 24 0 591 0 591 25 24 24 25 271 0 271 0 24 -25z m-2235 -82 c85 -24 113 -27 260 -27 168 0 186 3 378 60 l22 6 0 -166 0 -166 -40 0 c-34 0 -45 6 -76 40 -21 23 -68 56 -112 78 -72 35 -81 37 -171 37 -87 0 -102 -3 -162 -31 -36 -18 -88 -52 -114 -78 -41 -38 -55 -46 -87 -46 l-38 0 0 166 0 166 23 -6 c12 -4 65 -19 117 -33z m334 -305 c86 -26 166 -136 166 -228 0 -124 -116 -240 -240 -240 -92 0 -202 80 -228 166 -28 94 -8 169 63 239 70 71 145 90 239 63z m-469 -228 l0 -80 -402 0 -403 0 0 80 0 80 403 0 402 0 0 -80z m1595 0 l0 -80 -402 0 -403 0 0 80 0 80 403 0 402 0 0 -80z"/>
<path d="M640 4160 l0 -480 80 0 80 0 0 480 0 480 -80 0 -80 0 0 -480z"/>
<path d="M960 4160 l0 -480 80 0 80 0 0 480 0 480 -80 0 -80 0 0 -480z"/>
<path d="M4000 4160 l0 -480 80 0 80 0 0 480 0 480 -80 0 -80 0 0 -480z"/>
<path d="M4320 4160 l0 -480 80 0 80 0 0 480 0 480 -80 0 -80 0 0 -480z"/>
<path d="M2517 3429 c-23 -14 -517 -1001 -517 -1034 0 -14 11 -37 25 -50 24 -25 24 -25 240 -25 l215 0 0 -295 0 -296 25 -24 c25 -26 63 -32 96 -15 24 14 519 1000 519 1035 0 14 -11 37 -25 50 -24 25 -24 25 -240 25 l-215 0 0 295 0 296 -25 24 c-25 26 -67 32 -98 14z m-8 -770 c21 -17 41 -19 212 -19 l189 0 -133 -265 -132 -266 -5 167 c-7 219 11 204 -241 204 l-189 0 133 265 132 266 5 -167 c5 -159 6 -167 29 -185z"/>
<path d="M640 960 l0 -480 80 0 80 0 0 480 0 480 -80 0 -80 0 0 -480z"/>
<path d="M960 960 l0 -480 80 0 80 0 0 480 0 480 -80 0 -80 0 0 -480z"/>
<path d="M4000 960 l0 -480 80 0 80 0 0 480 0 480 -80 0 -80 0 0 -480z"/>
<path d="M4320 960 l0 -480 80 0 80 0 0 480 0 480 -80 0 -80 0 0 -480z"/>
</g>
</svg>