<svg width="30" height="30" viewBox="0 0 723 623" fill="none" xmlns="http://www.w3.org/2000/svg">
<path d="M490.7 538.5C486.4 530.2 482.4 522.6 478.5 515C478.1 514.1 477.7 513.1 477.8 512.1C478 497.6 469.7 486 464.6 473.4C462.2 467.6 459.2 462 456.8 456.2C454.1 449.7 456.5 443.6 462.4 441.3C468.3 439 473.9 441.9 476.8 448.3C480.5 456.6 484.4 464.8 488.5 473.8C502.5 458.7 513.8 442.6 523.2 424.9C507.7 421.1 502 413.9 502 398.3C502 393 502 387.6 502 382.3C502 368.4 506.6 361.6 519.4 356.3C531.6 351.4 541.2 343.7 547 331.8C547.9 330 549 328.1 549.1 326.2C549.2 324.9 548.1 322.7 547 322.2C537.5 318.4 527.8 314.7 518.1 311.3C510.1 308.5 506.6 301.6 510.3 295C513 290.2 518.3 288.6 524.7 290.8C532.8 293.6 540.8 296.7 548.9 299.7C549.4 299.4 549.9 299 550.4 298.7C548.1 294 546.1 288.9 543.3 284.5C537.9 276 529.8 270.4 520.6 266.6C505.7 260.3 501.9 254.8 501.9 238.6C501.9 234.3 501.9 229.9 501.9 225.6C501.9 208.6 506.7 202.2 523.9 197.4C516.5 186.4 509.4 175.6 502 165C498.9 160.5 495.2 156.4 491.5 152.4C490.7 151.5 488.3 151.1 487.1 151.6C476.9 156 466.8 160.6 456.6 165.2C450 168.1 443.9 166.3 441.3 160.6C438.6 154.4 440.8 149.1 447.4 146C456.6 141.7 465.8 137.6 474.9 133.2C476.3 132.5 478 130.3 477.8 129.1C474.5 112.7 479.2 98.9 490.4 86.9C490.8 86.4 491 85.8 491.9 84.1C480 76.4 468.3 68 456 60.7C426.7 43.4 395 32 361.5 26.2C331.1 20.9 300.6 20.4 270 24.8C246.1 28.2 223.1 34.5 200.9 43.6C192.8 46.9 184.9 50.9 177 54.8C170.4 58 164.2 56.6 161.1 50.7C158.2 45.3 160.7 39.1 166.9 35.8C193.6 21.6 222 11.7 251.7 5.99999C286.6 -0.700006 321.7 -1.40001 357.1 3.79999C389.8 8.69999 420.8 18.5 450.3 33.1C468.3 42 485.3 52.7 501.2 65.1C502.9 66.4 504.7 67.6 506.8 69.1C510.3 65.3 513.5 61.9 516.8 58.3C536.5 36.7 565.7 37.1 585.4 58.7C610.6 86.4 631.4 117 647.8 150.6C650.7 156.7 650.6 161.1 646.9 164.9C643.5 168.4 639.3 169.5 635.1 167.3C632.6 166 630.2 163.6 629 161.2C613.5 128.5 593.2 99.1 568.9 72.4C558.5 61 544.2 60.6 533.6 71.9C524 82.2 514.5 92.6 505.1 103.2C496.3 113.2 496.8 125.3 506 135.6C520 151.3 531.7 168.5 542.2 186.7C549.7 199.7 542.7 216.6 527.9 219.3C524.7 219.9 523.8 221.2 523.9 224.2C524.1 229.5 524.1 234.9 523.9 240.2C523.8 243.6 525.2 245.1 528.3 246.4C546.1 253.8 560.1 265.4 567.8 283.6C574.2 298.7 575.4 314.2 570.9 329.9C565.1 350.5 552.2 365 532.7 373.8C530.9 374.6 528.8 375.3 527.4 376.6C525.9 378 524.2 380 524.1 381.8C523.7 387.4 524 393.1 523.9 398.8C523.9 401.3 524.5 402.8 527.4 403.1C541.2 404.8 550.9 421.1 541.8 436.6C531.4 454.5 519.8 471.4 506 486.8C496.7 497.2 496.4 509.3 505.5 519.5C514.9 530 524.4 540.5 533.9 550.8C543.7 561.4 557.8 561.6 567.7 551C589.2 528 607.4 502.5 622.1 474.6C635.3 449.6 645.1 423.5 652.1 396.2C654.3 387.5 655.7 378.6 658.1 370C662 356.2 671 346.8 684.6 341.8C695.7 337.7 700.6 330.4 700.6 318.6C700.6 313.4 700.6 308.3 700.6 303.1C700.5 292 695.8 284.5 685.6 280.8C668.4 274.6 659.7 261.9 655.9 244.6C652.7 229.8 648.6 215.3 644.7 200.7C643 194.4 643.9 189.9 648.2 186.9C653.8 182.9 660.8 184.3 663.7 190.6C666.3 196.5 668.1 202.8 669.7 209C672.7 220.7 675.3 232.6 678.2 244.4C680.1 252.2 684.7 257.5 692.4 260.4C712.1 267.8 722.1 282.5 722.1 303.6C722.1 311.8 722.7 320.1 721.4 328C718.7 344.7 708.5 355.9 692.8 361.5C682.8 365.1 678.8 372.5 677.1 382C670.2 419 657.5 454 639.8 487.2C625.2 514.4 607.2 539.1 586.8 562.2C570.1 581.1 546.8 585.7 527 572.7C521 568.7 516.4 562.8 511.1 557.7C509.7 556.3 508.5 554.8 507.1 553.3C498.5 559.4 490.4 565.4 482 571C451.7 591.2 418.6 605.2 383.3 613.7C346.3 622.6 308.8 624.2 271.1 619.5C237.8 615.3 205.9 605.7 175.6 590.9C140.3 573.7 109.3 550.6 82.7001 521.8C58.2001 496 39.1001 466.5 25.0001 433.7C13.0001 405.8 5.30006 376.8 2.00006 346.8C-1.09994 318.8 -0.599941 290.7 3.90006 262.6C7.60006 239.7 13.6001 217.5 22.1001 195.9C34.9001 163.6 52.8001 134.5 75.4001 108.2C91.3001 89.7 109 73.3 128.9 59.1C134.6 55 140.9 55.9 144.7 61.2C148.2 66 146.7 72.3 141.5 76.6C131.2 85 120.6 93 111 102.1C85.0001 126.7 64.7001 155.4 49.4001 187.7C38.7001 210.4 31.0001 234 26.4001 258.6C22.0001 282.1 20.6001 305.8 22.2001 329.7C23.6001 350.9 26.6001 371.9 33.2001 392C39.1001 410.1 46.1001 428 54.6001 445C70.3001 476.3 91.9001 503.4 118.1 526.8C144 549.9 173 567.8 205.3 580.6C247.1 597.2 290.4 603.3 335 599.9C362.5 597.8 389.2 591.6 414.9 581.6C438.7 572.3 461 560.4 481.7 545.3C484.9 543 488.1 540.4 490.7 538.5Z" fill="black"/>
<path d="M306.9 492.6C301.4 492.1 291.9 491.4 282.5 490.3C276.5 489.6 272.8 484.4 273.3 478.2C273.8 472.5 278.1 468.9 284.4 469.1C294.7 469.5 305 470.7 315.3 470.6C349 470.3 379.2 459.5 406.2 439.5C436.3 417.1 456.4 387.6 465.8 351.2C475.4 313.9 472 277.4 455.4 242.7C438 206.4 410.4 180 373.3 164.2C341.6 150.7 308.6 148.1 275 156.1C230.4 166.6 196.5 192 173.2 231.4C153.1 265.4 147.1 302.2 154.2 340.6C162.2 383.6 184.5 418.1 220.9 442.8C228.8 448.2 237.4 452.6 246 457C254.2 461.2 257.2 466.6 253.8 473C251.1 478.3 246 480.3 240.4 478.1C220.6 470.2 203.2 458.5 187.6 444.1C168.9 426.8 154.5 406.5 144.6 383.1C131.3 351.6 126.6 319 131.8 284.9C136.8 251.9 149.8 222.4 170.9 196.7C190.8 172.4 215.5 154.3 244.9 142.8C271.6 132.3 299.2 128.6 327.6 131.1C362.5 134.2 393.7 146.7 421.4 167.9C444.6 185.7 462.6 207.9 474.9 234.3C489.2 264.9 494.8 297.2 491 331C488.1 356.8 480.3 380.9 467 403.3C448.6 434.2 423.4 457.7 391.1 473.8C365.8 486.3 339 492.2 306.9 492.6Z" fill="black"/>
<path d="M234.3 204.3C238.5 205.7 242.6 207.4 246.9 208.5C249.4 209.1 252.5 209.6 254.8 208.7C262.9 205.8 270.9 202.4 278.7 198.8C280.8 197.8 283 195.6 283.7 193.5C287.9 180.7 297.3 173.8 311.6 173.9C325.5 174 334.9 181 338.8 193.7C339.4 195.7 341.5 197.8 343.5 198.7C351.5 202.4 359.6 205.8 367.8 208.8C370.2 209.7 373.8 209.4 376.1 208.2C397.2 196.7 419.3 218.5 417.4 235.4C416.9 239.7 414.6 243.8 413.5 248.1C413 250 412.6 252.3 413.3 254C416.4 262.1 419.9 269.9 423.1 277.9C424.4 281.3 426.2 283.4 429.9 284.3C440.5 287 447.9 297 448.7 308C449.9 324.1 441.5 335.6 428 339.1C426.2 339.6 424.4 341.9 423.5 343.8C419.8 352.1 416.3 360.6 413.1 369.1C412.4 370.9 413.2 373.6 414.1 375.4C419 385 419.1 394.5 412.9 403.3C406.1 413 397.1 419.1 384.5 417.2C381.8 416.8 378.8 416 376.6 414.5C372.6 411.9 369.4 412.8 365.5 414.7C358.3 418.1 350.7 420.6 343.5 424C341.5 425 339.4 427.3 338.7 429.5C335.2 441.2 325.3 448.7 312.1 448.9C298.4 449.2 287.6 442.4 284.5 430.6C283.2 425.9 280.4 424.3 276.6 422.8C269.6 420.1 262.7 417.5 255.9 414.3C252.5 412.7 250 412.6 246.6 414.4C235.9 420 225.6 418.8 216.5 411C207.8 403.6 202.7 394.4 205.8 382.4C206.2 381 206.6 379.4 207.4 378.2C211.3 373.1 209.5 368.6 206.9 363.6C203.9 357.7 201.6 351.4 199.5 345.2C198.3 341.5 196.3 339.5 192.5 338.5C180.8 335.4 173.7 324.8 173.8 311.1C173.9 297.9 181.2 287.7 192.9 284.5C196 283.7 197.9 282.1 199.2 278.9C202.2 271 205.4 263.2 209 255.5C210.6 252.2 209.9 249.6 208.4 246.7C198.7 227.8 213 205 234.3 204.3ZM395.8 234.6C395.5 229 389.1 225.5 384.7 227.9C375.8 232.9 367.1 232.7 358 228.3C350.7 224.8 343.2 221.7 335.5 218.9C326.5 215.7 320.6 209.9 318.2 200.6C317.2 196.8 315 195.1 311 195.2C307.2 195.3 305.1 196.5 304 200.6C301.5 209.7 295.6 215.7 286.6 218.9C278.8 221.7 271.1 224.8 263.6 228.4C254.8 232.6 246.3 232.9 237.9 228C234.4 226 231.8 226.3 229 229C226.3 231.7 225.7 234.3 227.8 237.9C233 246.7 232.4 255.5 228 264.6C224.6 271.6 221.5 278.8 219 286.1C215.7 295.5 209.7 301.7 200.1 304.2C196.1 305.2 194.8 307.7 194.9 311.5C195 315.1 196.5 317.3 200.2 318.2C209.5 320.5 215.4 326.4 218.7 335.3C221.5 342.7 224.3 350.2 227.8 357.3C232.1 366.1 233.2 374.8 228.3 383.5C226.4 387 225.8 389.8 228.8 392.9C231.9 396.2 235 395.9 238.6 393.9C246.8 389.4 254.9 389.7 263.4 393.7C271 397.3 278.8 400.7 286.8 403.4C295.8 406.5 301.5 412.5 303.9 421.3C305.1 425.5 307.3 426.9 311.3 426.9C315.6 426.9 317.4 424.7 318.4 420.8C320.7 412.4 326.1 406.8 334.4 403.8C342 401 349.5 397.9 356.9 394.4C365.8 390.2 374.6 388.7 383.5 393.9C386.9 395.9 390 396.2 393 393.3C396.2 390.3 395.9 387.2 393.8 383.5C389.2 375.4 389.6 367.2 393.6 358.7C397.5 350.3 400.7 341.6 404.3 333C407.5 325.3 413.3 320.2 421.3 318.2C425.2 317.2 426.9 315.3 427 311.4C427.1 307.3 425.6 305.1 421.4 303.9C413.1 301.6 407.1 296.5 403.9 288.2C400.6 279.5 397.1 270.9 393.2 262.5C389.5 254.5 389.4 246.8 393.4 239C394.5 237.6 395.3 235.8 395.8 234.6Z" fill="black"/>
<path d="M610.6 215.5C610.5 221.9 607.3 225.9 602.2 226.9C597.1 228 592.3 225.4 590.1 220.4C584.6 207.8 579.4 195 573.5 182.6C569.8 174.7 565.3 167.1 560.9 159.5C557.4 153.3 558.5 146.4 564 143.4C569.6 140.2 575.8 142.4 579.5 148.7C591.5 168.6 601.3 189.7 609.5 211.4C610.3 213 610.5 214.9 610.6 215.5Z" fill="black"/>
<path d="M610.6 408.7C608.5 414.1 606.1 421.5 602.7 428.5C595.2 443.9 587.4 459 579.5 474.1C576.2 480.4 569.9 482.4 564.4 479.4C558.9 476.4 557.1 469.6 560.6 463.9C572.5 444.4 581.8 423.7 590 402.5C592.1 397.1 597.1 394.5 602.3 395.6C607.5 396.8 610.8 401.1 610.6 408.7Z" fill="black"/>
<path d="M166.5 170.4C166.4 176.5 163.3 180.5 158.8 181.6C153.4 182.9 148.7 181.1 146.2 176C141.8 166.9 137.7 157.6 133.5 148.4C129.1 138.7 124.8 129 120.6 119.3C118.4 114.2 120.6 108.3 125.5 105.8C130.6 103.2 137 105 139.6 110.3C145.3 122.1 150.6 134.1 156.1 146C159 152.3 161.9 158.7 164.7 165.1C165.7 167.2 166.2 169.4 166.5 170.4Z" fill="black"/>
<path d="M332.6 521.3C331.3 525 329.8 529.8 328 534.6C322.4 549.7 316.7 564.7 310.8 579.7C309.8 582.3 307.8 585 305.5 586.6C302 589.2 297.9 588.8 294.2 586.4C290.3 583.8 288.6 579.9 289.9 575.6C292.4 567.5 295.4 559.6 298.3 551.7C302.6 540 307 528.4 311.5 516.7C313.5 511.3 318.6 508.3 323.6 509.2C328.8 510.4 332.6 514.9 332.6 521.3Z" fill="black"/>
<path d="M300 113.4C293.6 113.5 288.2 107.5 290.1 100.8C292.4 92.5 295.6 84.5 298.6 76.4C302.8 65 307.2 53.7 311.5 42.4C314 35.8 319.4 33 325.7 35.2C331.4 37.1 334.1 42.9 331.7 49.5C324.8 68.3 317.6 87.1 310.6 105.9C308.8 110.4 305.4 113 300 113.4Z" fill="black"/>
<path d="M104.4 490.3C104.4 487 107.2 483.8 111.6 481.8C122.8 476.7 134 471.6 145.2 466.5C152 463.4 158.8 460.3 165.6 457.3C170.6 455 175.6 455.7 179 459.2C182.5 462.9 183 467.3 180.6 471.6C179.6 473.5 177.7 475.4 175.7 476.3C157.5 484.7 139.2 493.1 120.8 501.2C112.4 504.8 104.6 500.3 104.4 490.3Z" fill="black"/>
<path d="M100.2 332.6C96.9 331.4 92 329.8 87.2 328.1C72.1 322.5 57.1 316.8 42 311.1C35.7 308.7 32.7 303 34.6 297.3C36.8 290.9 42.2 288.3 49.6 291C63.3 295.9 77 301.2 90.6 306.4C95.6 308.3 100.6 310.1 105.5 312C111 314.1 113.9 319.2 112.7 324.6C111.8 329.7 107.6 332.8 100.2 332.6Z" fill="black"/>
<path d="M643.8 321.8C639.5 321.8 635.1 322.2 630.8 321.7C625.2 321.1 621.4 316.6 621.5 311.2C621.5 305.8 625.3 301.2 631 301C639.6 300.6 648.3 300.6 656.9 301C662.5 301.2 666.4 305.9 666.4 311.2C666.5 316.5 662.7 321.1 657.1 321.7C652.8 322.2 648.3 321.8 643.8 321.8Z" fill="black"/>
<path d="M537.2 130.7C532.7 129.7 529.5 127.9 528 123.8C526.4 119.6 526.7 115.4 529.9 112.2C535.2 106.9 540.6 101.8 546.3 97C551.1 92.9 556.6 93.7 561 98.4C564.6 102.2 564.4 108.6 560.3 112.8C555.4 117.7 550.5 122.7 545.2 127.1C543 128.9 539.9 129.6 537.2 130.7Z" fill="black"/>
<path d="M538.7 492.4C540.2 493.1 543 493.8 545.1 495.6C550 499.7 554.7 504.3 559.3 508.8C564.2 513.6 564.7 520.1 560.8 524.4C556.1 529.5 550.7 529.7 545 524.7C539.9 520.2 534.9 515.6 530.1 510.8C526.7 507.4 526.3 503.1 528 498.7C529.6 494.4 533.2 492.8 538.7 492.4Z" fill="black"/>
<path d="M384 311.5C384.6 351.2 351.2 384.8 310.7 384.5C270.4 384.2 238 351.5 238.1 311.2C238.2 270.7 271.2 237.9 311.5 238.2C352.4 238.5 384.8 272.4 384 311.5ZM362.7 311.3C362.7 282.8 339.5 259.6 311.1 259.6C282.7 259.6 259.5 282.9 259.6 311.4C259.6 339.8 283 363.2 311.3 363.1C339.5 363.1 362.7 339.7 362.7 311.3Z" fill="black"/>
</svg>
