<svg width="17" height="20" viewBox="0 0 17 20" fill="none" xmlns="http://www.w3.org/2000/svg">
<path fill-rule="evenodd" clip-rule="evenodd" d="M8.33984 2C6.68299 2 5.33984 3.34315 5.33984 5C5.33984 6.65685 6.68299 8 8.33984 8C9.9967 8 11.3398 6.65685 11.3398 5C11.3398 3.34315 9.9967 2 8.33984 2ZM3.33984 5C3.33984 2.23858 5.57842 0 8.33984 0C11.1013 0 13.3398 2.23858 13.3398 5C13.3398 7.76142 11.1013 10 8.33984 10C5.57842 10 3.33984 7.76142 3.33984 5ZM2.4228 18H14.2569C13.7808 15.1623 11.3128 13 8.33984 13C5.36685 13 2.89888 15.1623 2.4228 18ZM0.339844 19C0.339844 14.5817 3.92157 11 8.33984 11C12.7581 11 16.3398 14.5817 16.3398 19C16.3398 19.5523 15.8921 20 15.3398 20H1.33984C0.787559 20 0.339844 19.5523 0.339844 19Z" fill="#545F71"/>
</svg>
