<svg width="21" height="20" viewBox="0 0 21 20" fill="none" xmlns="http://www.w3.org/2000/svg">
<path fill-rule="evenodd" clip-rule="evenodd" d="M10.3394 2C5.92108 2 2.33936 5.58172 2.33936 10C2.33936 11.6797 2.85701 13.2385 3.74148 14.5255C5.73347 13.5484 7.97355 13 10.3394 13C12.7052 13 14.9452 13.5484 16.9372 14.5255C17.8217 13.2384 18.3394 11.6797 18.3394 10C18.3394 5.58172 14.7576 2 10.3394 2ZM17.9936 16.4356C19.4574 14.6964 20.3394 12.4512 20.3394 10C20.3394 4.47715 15.8622 0 10.3394 0C4.81651 0 0.339355 4.47715 0.339355 10C0.339355 12.4512 1.22128 14.6964 2.68513 16.4356C2.69304 16.4454 2.70111 16.4549 2.70934 16.4643C4.54365 18.6272 7.28119 20 10.3394 20C13.3975 20 16.135 18.6272 17.9694 16.4643C17.9776 16.4549 17.9857 16.4454 17.9936 16.4356ZM15.538 16.0808C13.9468 15.3858 12.1891 15 10.3394 15C8.48965 15 6.73195 15.3858 5.14072 16.0808C6.53896 17.2774 8.35477 18 10.3394 18C12.3239 18 14.1398 17.2774 15.538 16.0808ZM10.3394 6C9.23479 6 8.33936 6.89543 8.33936 8C8.33936 9.10457 9.23479 10 10.3394 10C11.4439 10 12.3394 9.10457 12.3394 8C12.3394 6.89543 11.4439 6 10.3394 6ZM6.33936 8C6.33936 5.79086 8.13022 4 10.3394 4C12.5485 4 14.3394 5.79086 14.3394 8C14.3394 10.2091 12.5485 12 10.3394 12C8.13022 12 6.33936 10.2091 6.33936 8Z" fill="#545F71"/>
</svg>
