<svg  viewBox="0 0 21 20" fill="none" xmlns="http://www.w3.org/2000/svg">
<path fill-rule="evenodd" clip-rule="evenodd" d="M10.3398 2C5.92157 2 2.33984 5.58172 2.33984 10C2.33984 14.4183 5.92157 18 10.3398 18C14.7581 18 18.3398 14.4183 18.3398 10C18.3398 5.58172 14.7581 2 10.3398 2ZM0.339844 10C0.339844 4.47715 4.817 0 10.3398 0C15.8627 0 20.3398 4.47715 20.3398 10C20.3398 15.5228 15.8627 20 10.3398 20C4.817 20 0.339844 15.5228 0.339844 10ZM10.3398 5C10.8921 5 11.3398 5.44772 11.3398 6V10C11.3398 10.5523 10.8921 11 10.3398 11C9.78756 11 9.33984 10.5523 9.33984 10V6C9.33984 5.44772 9.78756 5 10.3398 5ZM9.33984 14C9.33984 13.4477 9.78756 13 10.3398 13H10.3498C10.9021 13 11.3498 13.4477 11.3498 14C11.3498 14.5523 10.9021 15 10.3498 15H10.3398C9.78756 15 9.33984 14.5523 9.33984 14Z" fill="#545F71"/>
</svg>
