<svg xmlns="http://www.w3.org/2000/svg" version="1.0" width="512.000000pt" height="512.000000pt" viewBox="0 0 512.000000 512.000000" preserveAspectRatio="xMidYMid meet">

<g transform="translate(0.000000,512.000000) scale(0.100000,-0.100000)" fill="#000000" stroke="none">
<path d="M2360 4950 c-302 -38 -583 -142 -831 -309 -437 -294 -724 -762 -794 -1294 -71 -551 124 -1125 521 -1524 l62 -63 -46 0 c-250 -1 -486 -193 -537 -437 -21 -96 -21 -630 0 -726 43 -203 219 -379 422 -422 101 -22 2705 -22 2806 0 203 43 379 219 422 422 21 96 21 630 0 726 -52 245 -286 435 -540 437 -39 1 -46 3 -32 11 35 20 200 216 269 318 373 557 420 1259 123 1852 -106 211 -269 423 -434 564 -255 218 -575 371 -889 426 -134 23 -404 33 -522 19z m120 -205 c0 -67 29 -105 80 -105 51 0 80 38 80 105 0 30 4 55 9 55 6 0 61 -7 124 -15 318 -42 604 -165 855 -368 l62 -51 -34 -35 c-18 -20 -37 -46 -41 -59 -16 -54 43 -113 97 -97 13 4 39 23 59 41 l35 34 51 -62 c202 -250 326 -537 368 -854 8 -60 15 -115 15 -121 0 -9 -18 -13 -55 -13 -46 0 -60 -4 -80 -25 -33 -32 -33 -78 0 -110 20 -21 34 -25 80 -25 l56 0 -6 -57 c-41 -367 -160 -660 -378 -931 l-51 -62 -36 35 c-19 19 -50 37 -67 41 -27 5 -37 1 -64 -25 -26 -27 -30 -37 -25 -64 4 -17 22 -48 42 -68 l35 -36 -71 -56 -72 -57 -988 0 -988 0 -72 57 -71 56 29 31 c60 64 65 94 22 138 -26 25 -36 29 -63 24 -17 -4 -48 -22 -67 -41 l-36 -35 -54 66 c-200 246 -324 535 -365 851 -8 63 -15 118 -15 124 0 5 25 9 55 9 67 0 105 29 105 80 0 51 -38 80 -105 80 -30 0 -55 4 -55 9 0 6 7 61 15 124 42 320 161 597 368 855 l51 62 36 -35 c19 -19 50 -37 67 -41 27 -5 37 -1 64 25 26 27 30 37 25 64 -4 17 -22 47 -41 67 l-34 35 62 51 c240 198 536 327 845 369 153 21 142 24 142 -40z m-1200 -3200 c0 -67 29 -105 80 -105 51 0 80 38 80 105 l0 55 160 0 160 0 0 -55 c0 -67 29 -105 80 -105 51 0 80 38 80 105 l0 55 160 0 160 0 0 -55 c0 -67 29 -105 80 -105 51 0 80 38 80 105 l0 55 160 0 160 0 0 -55 c0 -67 29 -105 80 -105 51 0 80 38 80 105 l0 55 160 0 160 0 0 -55 c0 -67 29 -105 80 -105 51 0 80 38 80 105 l0 55 160 0 160 0 0 -55 c0 -67 29 -105 80 -105 51 0 80 38 80 105 0 51 2 55 23 55 41 0 138 -30 183 -56 78 -46 159 -152 179 -236 l7 -28 -1672 0 -1672 0 7 28 c36 151 204 288 358 291 26 1 27 0 27 -54z m2960 -585 l0 -160 -1680 0 -1680 0 0 160 0 160 1680 0 1680 0 0 -160z m-15 -347 c-30 -126 -149 -243 -280 -278 -101 -26 -105 -24 -105 40 0 67 -29 105 -80 105 -51 0 -80 -38 -80 -105 l0 -55 -160 0 -160 0 0 55 c0 67 -29 105 -80 105 -51 0 -80 -38 -80 -105 l0 -55 -160 0 -160 0 0 55 c0 67 -29 105 -80 105 -51 0 -80 -38 -80 -105 l0 -55 -160 0 -160 0 0 55 c0 67 -29 105 -80 105 -51 0 -80 -38 -80 -105 l0 -55 -160 0 -160 0 0 55 c0 67 -29 105 -80 105 -51 0 -80 -38 -80 -105 l0 -55 -160 0 -160 0 0 55 c0 67 -29 105 -80 105 -51 0 -80 -38 -80 -105 0 -64 -4 -66 -105 -40 -132 35 -250 151 -280 278 l-7 27 1672 0 1672 0 -7 -27z"/>
<path d="M2420 4393 c-187 -20 -408 -101 -565 -206 -182 -122 -343 -304 -437 -492 -241 -480 -154 -1074 212 -1451 246 -253 529 -383 870 -400 363 -19 699 113 961 375 155 154 249 306 314 507 220 669 -145 1385 -818 1609 -160 53 -371 76 -537 58z m285 -163 c250 -36 469 -145 645 -320 421 -421 439 -1082 43 -1537 -115 -132 -311 -260 -484 -316 -357 -117 -756 -44 -1049 191 -472 377 -556 1064 -191 1550 238 315 650 487 1036 432z"/>
<path d="M2380 4065 c-297 -61 -560 -263 -682 -525 -133 -284 -133 -559 0 -840 88 -185 246 -345 430 -435 153 -75 276 -105 430 -105 367 0 709 214 864 540 70 147 98 268 98 420 0 195 -64 395 -176 555 -49 70 -179 198 -244 241 -104 69 -267 133 -390 153 -87 14 -250 12 -330 -4z m258 -352 c2 -140 6 -203 13 -203 7 0 38 -12 71 -27 l59 -26 142 141 142 142 58 -57 57 -58 -142 -142 -142 -142 22 -48 c11 -26 24 -58 27 -70 6 -22 9 -23 208 -25 l202 -3 0 -75 0 -75 -202 -3 c-199 -2 -202 -3 -208 -25 -3 -12 -16 -44 -27 -70 l-22 -48 142 -142 142 -142 -57 -58 -58 -57 -142 142 -142 141 -59 -26 c-33 -15 -64 -27 -71 -27 -7 0 -11 -63 -13 -202 l-3 -203 -54 -3 c-30 -2 -65 -1 -78 3 l-23 5 0 200 c0 198 0 199 -22 205 -13 3 -45 16 -71 27 l-48 22 -142 -142 -142 -142 -58 57 -57 58 142 142 142 142 -22 48 c-11 26 -24 58 -27 70 -6 22 -9 23 -208 25 l-202 3 0 75 0 75 202 3 c199 2 202 3 208 25 3 12 16 44 27 70 l22 48 -142 142 -142 142 57 58 58 57 142 -142 142 -142 48 22 c26 11 58 24 71 27 22 6 22 8 22 204 0 109 3 201 7 205 4 4 39 5 78 4 l70 -3 3 -202z m-318 75 l0 -92 -65 64 c-36 35 -61 67 -57 71 7 8 102 48 115 48 4 1 7 -40 7 -91z m544 71 c31 -11 58 -24 60 -28 3 -4 -24 -36 -59 -71 l-65 -64 0 92 c0 51 2 92 5 92 2 0 29 -9 59 -21z m-944 -434 l64 -65 -92 0 c-92 0 -93 0 -87 23 10 30 43 107 47 107 2 0 33 -29 68 -65z m1379 -1 c12 -30 21 -57 21 -59 0 -3 -41 -5 -92 -5 l-92 0 64 65 c35 35 67 62 71 59 4 -2 17 -29 28 -60z m-1379 -609 c-35 -35 -67 -62 -71 -59 -7 4 -49 107 -49 119 0 3 41 5 92 5 l92 0 -64 -65z m1394 43 c-10 -32 -43 -108 -46 -108 -2 0 -33 29 -68 65 l-64 65 92 0 c92 0 93 0 86 -22z m-994 -409 c0 -102 6 -99 -89 -58 l-45 20 64 64 c36 36 66 65 67 65 2 0 3 -41 3 -91z m604 -40 c-4 -7 -107 -49 -119 -49 -3 0 -5 41 -5 92 l0 92 65 -64 c35 -35 62 -67 59 -71z"/>
<path d="M2480 3347 c-49 -16 -133 -102 -148 -153 -28 -94 -8 -169 63 -239 102 -103 243 -101 338 5 93 103 90 228 -8 325 -70 71 -152 91 -245 62z m135 -172 c16 -15 25 -36 25 -55 0 -19 -9 -40 -25 -55 -49 -50 -135 -15 -135 55 0 41 39 80 80 80 19 0 40 -9 55 -25z"/>
</g>
</svg>