<svg xmlns="http://www.w3.org/2000/svg" width="34" height="26" fill="none" viewBox="0 0 34 26">
  <path fill="#E1DFDB" fill-rule="evenodd" d="M0 1.857C0 .831.846 0 1.889 0H32.11C33.154 0 34 .831 34 1.857s-.846 1.857-1.889 1.857H1.89C.846 3.714 0 2.883 0 1.857ZM0 13c0-1.026.846-1.857 1.889-1.857H32.11c1.043 0 1.889.831 1.889 1.857s-.846 1.857-1.889 1.857H1.89C.846 14.857 0 14.026 0 13Zm0 11.143c0-1.026.846-1.857 1.889-1.857H32.11c1.043 0 1.889.831 1.889 1.857S33.154 26 32.111 26H1.89C.846 26 0 25.169 0 24.143Z" clip-rule="evenodd"/>
</svg>
