<svg width="54" height="54" viewBox="0 0 54 54" fill="none" xmlns="http://www.w3.org/2000/svg">
<circle cx="27" cy="27" r="27" fill="#40A4C4"/>
<path fill-rule="evenodd" clip-rule="evenodd" d="M26.5781 15.1875C27.5434 15.1875 28.3259 15.97 28.3259 16.9353V25.6741H37.0647C38.03 25.6741 38.8125 26.4566 38.8125 27.4219C38.8125 28.3871 38.03 29.1696 37.0647 29.1696H28.3259V37.9085C28.3259 38.8737 27.5434 39.6562 26.5781 39.6562C25.6129 39.6562 24.8304 38.8737 24.8304 37.9085V29.1696L16.0915 29.1696C15.1263 29.1696 14.3438 28.3871 14.3438 27.4219C14.3438 26.4566 15.1263 25.6741 16.0915 25.6741L24.8304 25.6741V16.9353C24.8304 15.97 25.6129 15.1875 26.5781 15.1875Z" fill="#302D6F"/>
</svg>
