<svg width="785" height="621" viewBox="0 0 785 621" fill="none" xmlns="http://www.w3.org/2000/svg">
<path d="M177 620.1C169.3 620.1 161.9 620.2 154.4 620C153.4 620 151.8 618.4 151.6 617.3C150.3 608.4 144 603.3 137.5 598.3C130.7 593.1 123.4 588.3 117.2 582.3C94.8 560.5 96.1 530.3 120.2 509.6C128.2 502.7 137.1 496.7 144.9 489.6C153.9 481.5 154.1 468.5 145.5 460C140.4 455 134.5 451 129.1 446.4C123.8 441.9 118.8 437.1 113.3 432.8C111.5 431.4 108.8 430.7 106.5 430.6C94.4999 430.4 82.4999 430.5 70.4999 430.5C56.3999 430.5 42.8 428.6 30.4 420.8C17.4 412.6 7.89995 401.5 3.69995 386.9C1.29995 378.6 0.399963 369.6 0.399963 360.9C0.199963 262.7 0.299951 164.6 0.199951 66.4C0.199951 50.2 4.29996 35.7 14.9 23.1C26.6 9.2 41.3999 1.5 59.5999 0.3C62.7999 0.1 65.8999 0 69.0999 0C284.8 0 500.4 0 716.1 0C726.3 0 736.4 0.7 745.9 4.9C763.6 12.8 776.2 25.5 781.6 44.4C783.6 51.3 784.8 58.7 784.8 65.9C785 165.4 784.9 264.9 784.9 364.4C784.9 387.2 776 405.6 757.5 419C745.8 427.5 732.2 430.4 718 430.5C700.5 430.5 683 430.5 665.5 430.5C663.5 430.5 661.6 430.5 659.6 430.5C659.4 430.9 659.3 431.2 659.1 431.6C662.5 434.8 665.7 438.1 669.2 441.2C688.9 458.8 689.8 492.5 664.3 512.6C657.3 518.1 650.2 523.6 643.2 529.1C628.7 540.6 630.9 556.7 645.6 567.7C655 574.7 664.2 582.1 672.5 590.3C680.3 598 683.5 608.2 683.5 619.9C675.4 619.9 667.6 620 659.8 619.8C659 619.8 657.6 618.5 657.6 617.7C656.8 608.3 650 603.5 643.6 598.2C635.6 591.7 626.9 585.9 620 578.5C601.8 558.9 603.5 530.2 623.5 512.3C631.3 505.4 639.8 499.3 648 492.8C661.8 481.8 660.8 465.8 646.3 454.6C637 447.4 627.2 440.6 619.3 432C601.5 412.7 603.8 383.5 623.8 366.2C632.2 358.9 641.2 352.5 649.8 345.4C654 342 656.9 337.7 657.5 332C657.6 330.8 659.7 328.9 660.9 328.8C667.4 328.5 673.9 328.5 680.4 328.8C681.5 328.9 683.5 331.5 683.3 332.5C682.1 338.3 680.4 344 678.7 349.7C678.3 351.1 677.5 352.3 676.6 354.2C686.6 354.2 695.9 354.3 705.2 354.1C706.3 354.1 708.2 352.1 708.2 351C708.4 336.5 708.3 322 708.4 307.5C708.4 304.8 707.2 304 704.7 304.1C703.5 304.2 702.4 304.1 701.2 304.1C630.2 304.1 559.2 304.1 488.2 304.1C486.1 304.1 483.9 304.1 481.5 304.1C481.5 320.9 481.5 337.2 481.5 354.3C483.2 354.3 485 354.3 486.7 354.3C500.5 354.3 514.4 353.7 528.2 354.5C535.8 354.9 541.4 352.2 546.5 347.5C551.2 343.1 555.8 338.5 556.3 331.4C556.4 330.4 558.4 328.8 559.6 328.8C566.1 328.5 572.6 328.7 579.1 328.7C582.5 328.7 582.3 330.9 582.1 333.2C580.8 346.4 574.7 357.2 564.6 365.6C556.6 372.3 548 378.2 540.2 385.2C528.8 395.3 528.9 408.6 540.3 418.7C547.5 425 555.3 430.7 562.8 436.7C589.5 457.7 588.9 494.2 559.6 515.4C554.4 519.2 549.2 523.1 544.1 527C527.1 539.9 528.2 555.9 544.5 568.3C553.9 575.4 563.1 582.8 571.4 591C578.9 598.5 581.8 608.5 582.2 620.1C574 620.1 566.1 620.2 558.2 620C557.5 620 556.2 618.6 556.2 617.8C555.4 608.9 549 604 542.9 599C535.2 592.7 526.6 587.4 519.8 580.2C498.4 557.8 502.3 526.1 528 507.1C534.1 502.6 540.1 497.8 546.1 493.2C560.4 482.3 559.7 466.1 544.8 454.9C537.1 449.1 528.8 443.9 522.3 437C517.1 431.5 511.9 430.6 505.2 430.7C423.7 430.8 342.2 430.8 260.7 430.8C258.5 430.8 256.2 431 255 431C258.3 434.8 261.4 439.1 265.2 442.7C284.2 460.7 282.4 493 262.3 509.9C253.8 517.1 244.9 523.6 236.4 530.8C231.5 535 228.2 540.2 228.1 547.1C227.9 556.8 234 562.5 240.6 568C249.1 575.1 257.9 581.9 266.1 589.3C274.2 596.6 277.2 606.4 278.1 616.9C278.2 618 276.6 620.1 275.7 620.1C268.9 620.4 262 620.4 255.2 620.2C254.2 620.2 252.6 618.6 252.4 617.6C250.8 608.7 244.6 603.4 237.9 598.2C230.2 592.2 222.1 586.6 215.4 579.6C196.4 559.7 197.6 531.4 218 512.7C225.8 505.6 234.4 499.3 242.8 492.8C255.7 482.8 255.6 466.9 243 456.9C237.3 452.4 231.4 448 225.6 443.6C210.7 432.4 200.9 418.4 202.2 398.9C203.2 383.2 211.5 371.6 223.5 362.2C230.1 357.1 236.7 352.1 243.1 346.9C247.6 343.3 251.1 338.9 251.9 332.9C252.4 329.6 254.2 328.6 257.4 328.8C262.6 329 267.7 328.8 272.9 328.9C278.3 328.9 279 329.6 277.8 334.7C276.2 341.2 274.2 347.6 272.3 354.2C281.7 354.2 291.9 354.2 302.6 354.2C302.6 337.9 302.6 321.6 302.6 304.7C300.9 304.6 299.2 304.4 297.4 304.4C225.6 304.4 153.7 304.4 81.9 304.3C77.1 304.3 75.6 305.6 75.7 310.4C76 323.2 75.9 336.1 75.7 348.9C75.6 353 76.5 354.8 81.2 354.7C97 354.4 112.9 354.7 128.7 354.5C130.8 354.5 133.3 353.7 135 352.4C142.2 347.1 149.6 341.8 151.1 331.9C151.3 330.8 153.5 329.2 154.8 329.1C160.8 328.8 166.8 329.1 172.8 328.9C176 328.8 176.6 330.2 176.5 333.2C176 348.7 167.5 359.5 156.2 368.7C149.2 374.3 142.1 379.7 135.1 385.3C123.9 394.1 123.8 409.9 134.9 418.8C143.2 425.4 151.6 431.9 159.7 438.7C177.2 453.4 180.8 474.9 172.7 494.2C168.9 503.3 161.9 509.9 154.1 515.8C147.8 520.6 141.3 525.3 135.3 530.5C123.3 541 123.2 554 135.2 564.6C143.3 571.7 152.3 577.7 160.3 584.9C171.3 593.6 177.7 604.7 177 620.1ZM105.6 380.2C104.2 380.1 102.6 379.9 101 379.9C93.6999 379.9 86.2999 380 78.9999 379.8C75.4999 379.7 71.9 379.6 68.7 378.5C56.9 374.5 50.7999 365.3 50.7999 351.7C50.7999 260.9 50.9 170 50.7 79.2C50.7 64.7 59.8999 50.5 79.0999 50.5C157.9 50.8 236.8 50.6 315.6 50.7C318.6 50.7 321.9 51.5 324.7 52.8C335 57.7 345 63.2 355.3 68.1C361.2 70.9 367.3 74.6 373.6 75.1C386.3 76.2 399.2 75.5 412.1 75.4C414.2 75.4 416.5 74.9 418.3 74C428.7 68.9 438.9 63.4 449.4 58.5C456.4 55.3 462.6 50.4 471.1 50.4C548.9 50.6 626.8 50.5 704.6 50.5C708.6 50.5 712.7 50.6 716.5 51.6C727.6 54.5 734.7 65 734.7 78.2C734.7 169 734.5 259.9 734.9 350.7C735 367.3 724 380.3 705.8 379.8C689.1 379.3 672.5 379.7 655.8 379.7C644.9 379.7 634.9 388.7 633.7 399.6C633.3 403.4 634.2 405 638.4 405C665.7 404.9 693.1 405.3 720.4 404.8C737 404.5 750.2 397.2 756.3 381.2C758.8 374.6 759.2 366.9 759.2 359.7C759.4 264.4 759.3 169 759.3 73.7C759.3 68.7 759.1 63.7 758.8 58.7C758.5 51.6 755.6 45.5 751.4 40.1C743.1 29.5 731.8 25.4 718.6 25.4C501.3 25.4 283.9 25.4 66.5999 25.4C65.7999 25.4 64.8999 25.4 64.0999 25.4C52.0999 25.9 41.9 30.3 34.2 39.8C27.6 47.9 26.2 57.3 26.2 67.3C26.3 165.6 26.2999 264 26.2999 362.3C26.2999 365 26.3999 367.6 26.5999 370.3C27.4999 386.3 39.8999 401.3 55.5999 403.1C69.3999 404.7 83.5 404.3 97.4 404.8C98.7 404.8 100 404.6 100.4 404.5C102.1 396.3 103.8 388.5 105.6 380.2ZM455.2 354C455.2 264.3 455.2 175 455.2 84.5C448.5 87.8 442.6 90.9 436.5 93.6C430.1 96.4 423.5 100.6 416.8 101.1C400.7 102.2 384.5 101.5 368.3 101.4C365.9 101.4 363.3 100.9 361.1 99.9C356.7 98 352.5 95.6 348.2 93.4C342.3 90.5 336.4 87.6 330 84.5C330 175 330 264.4 330 353.9C372 354 413.5 354 455.2 354ZM303.4 228C301.4 227.9 300.1 227.7 298.8 227.7C226.5 227.7 154.2 227.7 81.9 227.6C77.8 227.6 76.3 228.8 76.4 233C76.6 245.8 76.4999 258.7 76.4999 271.5C76.4999 278.1 76.4999 278.1 83.0999 278.1C154.6 278.1 226 278.1 297.5 278.1C299.4 278.1 301.4 277.9 303.5 277.8C303.4 261 303.4 244.7 303.4 228ZM481.5 126.1C483.2 126.2 484.3 126.4 485.4 126.4C558.2 126.4 631 126.4 703.9 126.5C707.7 126.5 708.8 125.3 708.7 121.7C708.5 108.9 708.6 96 708.6 83.2C708.6 76.1 708.6 76 701.5 76C630.5 76 559.5 76 488.5 76C487.3 76 486.2 76.1 485 76C482.5 75.9 481.4 76.9 481.4 79.5C481.6 94.8 481.5 110.1 481.5 126.1ZM481.8 277.7C483.4 277.9 484.7 278.1 486 278.1C558.5 278.1 631 278.1 703.5 278.2C707.3 278.2 708.8 277.3 708.8 273.2C708.6 259.9 708.6 246.5 708.8 233.2C708.9 229.2 707.8 227.6 703.5 227.7C681.8 227.9 660.2 227.9 638.5 227.7C634.6 227.7 633.2 228.8 633.3 232.7C633.6 239.5 633.4 246.2 633.4 253C599.2 253 565.8 253 531.7 253C531.7 245.9 531.6 239.1 531.7 232.3C531.8 228.9 530.5 227.6 527 227.7C516.7 227.9 506.3 227.8 496 227.8C491.4 227.8 486.8 227.8 481.8 227.8C481.8 244.6 481.8 260.9 481.8 277.7ZM127 153C125.7 152.7 125 152.4 124.4 152.4C109.6 152.4 94.7 152.4 79.9 152.3C76.3 152.3 76.4 154.4 76.4 156.9C76.4 169.9 76.4 182.9 76.4 195.9C76.4 202.5 76.3999 202.5 82.9999 202.5C128 202.5 173 202.5 218 202.5C244.7 202.5 271.3 202.4 298 202.6C302.7 202.6 304 201.1 303.8 196.7C303.5 188.4 303.7 180 303.7 171.7C303.7 165.4 303.7 159.2 303.7 152.8C278.3 152.8 253.6 152.8 228.5 152.8C228.5 159.5 228.3 165.8 228.6 172.1C228.8 176.3 227.3 177.6 223.2 177.5C192.9 177.4 162.5 177.4 132.2 177.5C128.4 177.5 126.8 176.5 127 172.4C127.3 165.8 127 159.4 127 153ZM303.7 126.2C303.7 123.9 303.7 122.1 303.7 120.4C303.7 108.2 303.7 96.1 303.7 83.9C303.7 76 303.7 76 296 76C225.4 76 154.8 76 84.2 76C83 76 81.9 76.1 80.7 76C77.8 75.9 76.4999 77.2 76.4999 80.1C76.5999 94.3 76.5999 108.4 76.4999 122.6C76.4999 125.3 77.3999 126.5 80.2999 126.4C94.5999 126.3 108.9 126.3 123.3 126.4C126.1 126.4 127.2 125.3 127.2 122.6C127.1 117.3 127.5 111.9 127.1 106.6C126.8 102 128.5 101.1 132.8 101.1C162.3 101.3 191.8 101.2 221.2 101.2C228.6 101.2 228.6 101.2 228.6 108.4C228.6 114.3 228.6 120.2 228.6 126.2C253.9 126.2 278.3 126.2 303.7 126.2ZM481.8 202.4C497.7 202.4 513 202.5 528.3 202.2C529.4 202.2 531.4 199.9 531.5 198.6C531.9 192.8 531.8 186.9 531.6 181.1C531.5 177.9 532.8 176.7 536 176.7C567 176.8 598 176.8 629 176.7C632.2 176.7 633.5 177.9 633.4 181.1C633.2 186.6 633.6 192.1 633.3 197.6C633.1 201.4 634.5 202.5 638.1 202.4C659.9 202.3 681.8 202.2 703.6 202.4C707.5 202.4 708.8 201.2 708.8 197.3C708.6 184.1 708.5 171 708.8 157.8C708.9 153 707.2 152.1 702.8 152.1C630.8 152.2 558.8 152.2 486.9 152.2C485.3 152.2 483.7 152.4 481.8 152.5C481.8 169.1 481.8 185.4 481.8 202.4ZM229.2 405C231.1 405 233.1 405 235.1 405C288.9 405 342.8 405 396.6 405C431.4 405 466.3 405 501.1 405.1C504.7 405.1 507 404.5 506.5 400.3C506.4 399 506.7 397.6 507 396.3C508.2 391.1 509.5 385.8 510.9 379.8C508.6 379.8 506.5 379.8 504.4 379.8C420.4 379.8 336.4 379.9 252.4 379.6C243.8 379.6 238.3 382.7 233.3 388.8C229.5 393.4 227.5 398.4 229.2 405ZM202.3 126.7C186.2 126.7 170.6 126.6 155.1 126.9C154.2 126.9 152.6 129.2 152.5 130.5C152.2 136 152.5 141.5 152.3 147C152.1 150.8 153.3 152.3 157.4 152.2C168.5 151.9 179.7 152.1 190.8 152.1C194.6 152.1 198.3 152.1 202.3 152.1C202.3 143.3 202.3 135.4 202.3 126.7ZM607.4 227.5C607.4 219.8 607.5 212.7 607.2 205.6C607.2 204.7 604.8 203.1 603.5 203.1C589.4 202.9 575.2 203 561 203C558.1 203 556.8 204.1 556.8 207.1C556.9 212.6 557 218.1 556.8 223.6C556.7 226.7 558 227.7 560.9 227.6C569.9 227.5 578.9 227.6 587.9 227.6C594.2 227.5 600.5 227.5 607.4 227.5Z" fill="black"/>
<path d="M393.5 137.7C412.6 176 431.7 214.2 451.2 253.1C411.8 253.1 373.4 253.1 334 253.1C353.4 214.3 372.6 175.9 391.7 137.6C392.3 137.6 392.9 137.6 393.5 137.7ZM375.7 227.1C387.2 227.1 398.1 227.1 409.5 227.1C403.9 215.9 398.6 205.3 392.5 193.4C386.6 205.4 381.2 216 375.7 227.1Z" fill="black"/>
</svg>
