<svg width="88" height="79" viewBox="0 0 88 79" fill="none" xmlns="http://www.w3.org/2000/svg">
<path d="M86.4904 61.7363L54.0977 5.8171C52.0261 2.06413 48.2595 0 44.1162 0C39.973 0 36.2064 2.06413 34.1348 5.8171L1.55372 61.7363C-0.517907 65.3017 -0.517907 69.6176 1.55372 73.1829C3.62535 76.7482 7.39194 79 11.5352 79H38.6547C38.6547 76.3729 38.6547 72.057 38.6547 70.7435C38.6547 66.2399 38.6547 61.5487 38.843 57.0451C38.843 56.4822 38.843 56.1069 38.843 55.5439C38.843 55.1686 38.843 54.981 38.4663 54.7934C37.3364 54.2304 36.2064 53.6675 35.0764 52.9169C31.8748 50.4774 30.1798 47.2874 29.8032 43.1591C29.6148 40.9074 29.8032 38.8432 30.7448 36.7791C31.6865 34.715 33.0048 33.2138 34.6997 31.9002C35.4531 31.3373 36.0181 30.962 36.7714 30.3991C37.3364 30.0238 37.9013 30.0238 38.4663 30.3991C39.0313 30.7743 39.2197 31.3373 39.2197 31.9002C39.2197 36.0285 39.0313 40.1568 39.0313 44.285C39.0313 44.4727 39.0313 44.6603 39.0313 44.848C39.2197 44.848 39.408 45.0356 39.408 45.0356C40.9146 45.5986 42.4213 46.3492 43.9279 46.9121C44.3046 47.0998 44.4929 47.0998 44.8695 46.9121C46.1879 46.1615 47.6945 45.5986 49.2011 45.2233C49.7661 45.0356 49.7661 45.0356 49.7661 44.4727C49.7661 42.0333 49.9545 39.4062 49.9545 36.9667C49.9545 35.6532 50.1428 34.3397 50.1428 32.8385C50.1428 32.6508 50.1428 32.4632 50.1428 32.0879C50.3311 30.962 51.4611 30.3991 52.4027 31.1496C52.9677 31.7126 53.721 32.0879 54.286 32.8385C56.546 35.0903 57.676 37.905 57.8643 41.095C58.241 47.0998 55.0394 52.1663 49.5778 54.6057C49.3895 54.6057 49.3895 54.7934 49.2011 54.7934C49.2011 55.3563 49.2011 55.9192 49.2011 56.6698C49.2011 59.1093 49.2011 61.5487 49.2011 63.9881C49.2011 67.3658 49.2011 74.6841 49.0128 79H76.1323C80.2755 79 84.0421 76.9359 86.1138 73.1829C88.562 69.6176 88.562 65.3017 86.4904 61.7363Z" fill="#E1DFDB"/>
</svg>
