<svg xmlns="http://www.w3.org/2000/svg" width="328" height="295" fill="none" viewBox="0 0 328 295">
  <path fill="#40A4C4" d="M321.589 230.534 201.08 21.722C193.374 7.708 179.361 0 163.947 0c-15.414 0-29.426 7.708-37.133 21.722L5.605 230.534c-7.707 13.314-7.707 29.43 0 42.744C13.312 286.591 27.325 295 42.738 295H143.63v-30.831c0-16.817 0-34.335.701-51.152v-5.606c0-1.401 0-2.102-1.402-2.803-4.203-2.102-8.407-4.204-12.611-7.007-11.911-9.109-18.216-21.021-19.618-36.437-.7-8.409 0-16.116 3.503-23.824 3.504-7.708 8.408-13.314 14.714-18.219 2.802-2.102 4.904-3.503 7.707-5.606 2.102-1.401 4.203-1.401 6.305 0 2.102 1.402 2.803 3.504 2.803 5.606 0 15.416-.701 30.832-.701 46.247v2.102c.701 0 1.401.701 1.401.701 5.605 2.102 11.21 4.905 16.816 7.007 1.401.701 2.101.701 3.503 0 4.904-2.803 10.509-4.905 16.114-6.306 2.102-.701 2.102-.701 2.102-2.803 0-9.109.701-18.919.701-28.029 0-4.905.7-9.81.7-15.415v-2.803c.701-4.204 4.905-6.307 8.408-3.504 2.102 2.102 4.904 3.504 7.006 6.307 8.408 8.408 12.611 18.919 13.312 30.831 1.401 22.423-10.509 41.342-30.828 50.451-.7 0-.7.701-1.401.701v34.335c0 12.613 0 39.941-.701 56.057h100.891c15.414 0 29.426-7.708 37.133-21.722 9.109-13.314 9.109-29.43 1.402-42.744Z"/>
</svg>
