<svg width="1114" height="295" viewBox="0 0 1114 295" fill="none" xmlns="http://www.w3.org/2000/svg">
<path d="M369.932 62.3634H411.97L436.492 107.209L461.714 62.3634H501.65V142.245H471.523V92.494L443.498 142.245H428.084L400.059 92.494V142.245H369.932V62.3634Z" fill="#40A4C4"/>
<path d="M600.439 121.924C600.439 123.325 600.439 124.727 599.738 126.128C599.038 127.53 598.337 129.632 597.636 131.033C596.235 132.435 594.834 134.537 593.433 135.938C591.331 137.34 589.229 138.741 585.726 140.143C582.223 141.544 578.719 142.245 573.815 142.945C568.911 143.646 564.006 144.347 557.701 144.347H552.096C542.987 144.347 535.981 143.646 530.376 141.544C524.771 139.442 520.567 137.34 517.064 134.537C513.561 131.734 511.459 128.23 510.758 124.727C509.357 121.223 509.357 117.72 509.357 114.216V112.114C509.357 108.61 510.058 105.107 510.758 101.603C512.16 98.0998 514.262 95.2969 517.064 92.4941C519.867 89.6912 524.771 87.5891 530.376 85.4869C535.981 83.3848 542.987 82.6841 552.096 82.6841H557.701C564.006 82.6841 569.611 83.3848 573.815 84.0855C578.719 84.7862 582.223 86.1876 585.726 87.5891C589.229 88.9905 591.331 91.0926 593.433 93.1948C595.535 95.2969 596.936 97.399 598.337 99.5012C599.738 101.603 600.439 104.406 600.439 106.508C601.14 109.311 601.14 111.413 601.14 113.515V117.019H538.083C538.083 118.42 538.784 119.822 539.484 121.223C540.185 122.625 541.586 123.325 542.987 124.727C544.389 125.428 546.491 126.128 548.592 126.829C550.694 127.53 553.497 127.53 556.299 127.53C559.802 127.53 562.605 127.53 564.707 126.829C566.809 126.128 568.21 125.428 569.611 124.727C571.013 124.026 571.713 123.325 571.713 122.625C572.414 121.924 572.414 121.223 572.414 121.223L600.439 121.924ZM554.898 96.6983C552.096 96.6983 549.994 96.6983 547.892 97.399C545.79 98.0998 544.389 98.0998 542.987 99.5012C541.586 100.202 540.885 100.903 540.185 102.304C539.484 103.705 538.784 104.406 538.784 105.808H572.414C571.713 103.005 570.312 100.903 567.509 99.5012C564.006 98.0998 560.503 96.6983 554.898 96.6983Z" fill="#40A4C4"/>
<path d="M647.381 144.347C641.076 144.347 636.171 143.646 631.267 142.945C627.063 142.245 622.859 140.843 620.057 139.442C616.553 138.04 614.452 135.938 612.35 133.836C610.248 131.734 608.847 129.632 607.445 127.53C606.044 125.428 605.343 123.325 605.343 120.523C604.643 118.42 604.643 116.318 604.643 114.216V112.114C604.643 110.012 604.643 107.91 605.343 105.808C606.044 103.705 606.745 101.603 607.445 99.5012C608.847 97.399 610.248 95.2969 611.649 93.1947C613.751 91.0926 615.853 89.6912 619.356 88.2898C622.859 86.8883 626.362 85.4869 630.566 84.7862C634.77 84.0855 640.375 83.3848 646.681 83.3848H653.687C659.993 83.3848 665.597 84.0855 670.502 84.7862C675.406 85.4869 678.909 86.8883 682.413 88.2898C685.916 89.6912 688.018 91.0926 690.12 93.1947C692.221 95.2969 693.623 96.6983 694.323 98.8004C695.024 100.903 695.725 102.304 696.425 104.406C696.425 106.508 697.126 107.91 697.126 109.311H666.999C666.999 108.61 666.999 107.91 666.298 107.209C665.598 105.808 664.897 105.107 664.196 103.705C662.795 102.304 661.394 101.603 659.292 100.903C657.19 100.202 654.387 99.5012 650.884 99.5012H650.184C647.381 99.5012 644.579 100.202 642.477 100.903C640.375 101.603 638.974 103.005 637.572 103.705C636.171 105.107 635.47 106.508 634.77 107.91C634.069 109.311 634.069 111.413 634.069 112.815V113.515C634.069 114.917 634.069 117.019 634.77 119.121C635.47 121.223 636.171 122.625 637.572 124.026C638.974 125.428 640.375 126.829 642.477 127.53C644.579 128.23 647.381 128.931 650.184 128.931H650.884C654.387 128.931 657.19 128.23 659.292 127.53C661.394 126.829 662.795 125.428 664.196 124.727C665.598 123.325 666.298 122.625 666.298 121.223C666.298 119.822 666.999 119.121 666.999 118.42H697.126C697.126 119.822 697.126 121.223 696.425 123.325C695.725 125.428 695.725 126.829 694.323 128.931C693.623 131.033 692.221 133.135 690.12 134.537C688.018 136.639 685.916 138.04 682.413 139.442C678.909 140.843 675.406 142.245 670.502 142.945C665.597 143.646 659.993 144.347 653.687 144.347H647.381Z" fill="#40A4C4"/>
<path d="M702.03 62.3634H731.457V94.5962C732.157 93.8955 732.858 93.1948 734.96 91.7933C736.361 90.3919 738.463 88.9905 740.565 88.2898C742.667 86.8883 746.17 86.1876 749.673 84.7862C753.176 84.0855 757.38 83.3848 761.584 83.3848H762.284C767.889 83.3848 772.093 84.0855 775.596 85.4869C779.099 86.8883 781.902 88.9905 784.704 91.0926C786.806 93.1948 788.208 95.2969 789.609 98.0997C790.309 100.903 791.01 103.005 791.01 105.107V142.245H761.584V114.917C761.584 110.713 760.182 107.91 758.08 105.107C755.979 102.304 752.475 101.603 747.571 101.603C742.667 101.603 739.163 103.005 736.361 105.808C733.558 108.61 732.157 112.114 732.157 115.618V142.245H702.731V62.3634H702.03Z" fill="#40A4C4"/>
<path d="M851.264 134.537C850.564 135.237 849.863 135.938 848.462 137.34C847.06 138.04 845.659 139.442 843.557 140.142C841.455 140.843 838.653 141.544 835.85 142.245C833.048 142.945 828.844 142.945 824.64 142.945H823.239C818.335 142.945 814.131 142.245 810.628 141.544C807.125 140.843 804.322 139.442 802.22 137.34C800.118 135.237 798.717 133.836 797.316 131.033C796.615 128.931 795.915 126.829 795.915 124.026V122.625C795.915 120.522 796.615 117.72 797.316 116.318C798.016 114.216 799.418 112.815 801.52 111.413C803.621 110.012 805.723 108.61 808.526 107.91C811.328 107.209 814.832 106.508 819.736 105.808L847.761 103.005C849.162 103.005 849.863 102.304 850.564 102.304C851.264 101.603 851.264 100.903 851.264 100.202C851.264 99.5011 851.264 99.5011 850.564 98.8004C850.564 98.0997 849.863 98.0997 849.162 97.399C848.462 96.6983 847.06 96.6983 845.659 96.6983C844.258 96.6983 841.455 95.9976 838.653 95.9976H837.952C835.15 95.9976 832.347 95.9976 830.946 96.6983C829.545 97.399 828.143 97.399 827.443 98.0997C826.742 98.8004 826.042 99.5011 826.042 100.202C826.042 100.903 825.341 101.603 825.341 101.603H798.016V100.903C798.016 98.8004 798.016 96.6983 798.717 94.5961C799.418 92.494 800.819 90.3919 803.621 88.2897C806.424 86.1876 809.927 84.7862 814.832 83.3847C819.736 81.9833 826.742 81.2826 835.15 81.2826H841.455C847.761 81.2826 852.666 81.2826 856.869 81.9833C861.073 82.684 864.576 83.3847 867.379 84.0854C870.181 84.7862 872.283 86.1876 874.385 87.589C875.786 88.9904 877.188 90.3919 877.888 91.7933C878.589 93.1947 879.289 94.5961 879.289 95.9976C879.289 97.399 879.99 98.8004 879.99 100.202V121.924C879.99 122.625 879.99 123.325 880.691 124.026C880.691 124.727 881.391 124.727 882.793 124.727H885.595V141.544H861.073C858.271 141.544 856.169 140.843 854.767 139.442C852.666 139.442 851.965 137.34 851.264 134.537ZM850.564 114.917L830.946 118.42C828.143 119.121 826.742 119.121 825.341 119.822C823.94 120.522 823.94 121.924 823.94 123.325C823.94 124.026 823.94 124.727 824.64 125.427C824.64 126.128 825.341 126.829 826.042 127.53C826.742 128.23 827.443 128.23 828.844 128.931C830.245 129.632 831.647 129.632 833.048 129.632C835.85 129.632 837.952 129.632 840.054 128.931C842.156 128.23 844.258 127.53 845.659 126.128C847.06 124.727 848.462 124.026 849.162 122.625C849.863 121.223 850.564 119.822 850.564 118.42V114.917Z" fill="#40A4C4"/>
<path d="M889.799 84.7862H918.525V95.2969C919.225 94.5962 920.627 93.8955 922.028 92.494C923.429 91.0926 925.531 89.6912 927.633 88.2898C929.735 86.8883 933.238 86.1876 936.741 84.7862C940.244 84.0855 944.448 83.3848 948.652 83.3848H949.352C954.957 83.3848 959.161 84.0855 962.664 85.4869C966.167 86.8883 968.97 88.9905 971.772 91.0926C973.874 93.1947 975.276 95.2969 976.677 98.0997C977.377 100.903 978.078 103.005 978.078 105.107V142.245H948.652V114.917C948.652 110.713 947.25 107.91 945.148 105.107C943.047 102.304 939.543 101.603 934.639 101.603C929.735 101.603 926.232 103.005 923.429 105.808C920.627 108.61 919.225 112.114 919.225 115.618V142.245H889.799V84.7862Z" fill="#40A4C4"/>
<path d="M1015.91 79.8812H986.485V62.3634H1015.91V79.8812ZM1015.91 142.945H986.485V84.7862H1015.91V142.945Z" fill="#40A4C4"/>
<path d="M1064.96 144.347C1058.65 144.347 1053.75 143.646 1048.84 142.945C1044.64 142.245 1040.43 140.843 1037.63 139.442C1034.13 138.04 1032.03 135.938 1029.92 133.836C1027.82 131.734 1026.42 129.632 1025.02 127.53C1023.62 125.428 1022.92 123.325 1022.92 120.523C1022.22 118.42 1022.22 116.318 1022.22 114.216V112.114C1022.22 110.012 1022.22 107.91 1022.92 105.808C1023.62 103.705 1024.32 101.603 1025.02 99.5012C1026.42 97.399 1027.82 95.2969 1029.22 93.1947C1031.33 91.0926 1033.43 89.6912 1036.93 88.2898C1040.43 86.8883 1043.94 85.4869 1048.14 84.7862C1052.34 84.0855 1057.95 83.3848 1064.26 83.3848H1071.26C1077.57 83.3848 1083.17 84.0855 1088.08 84.7862C1092.98 85.4869 1096.48 86.8883 1099.99 88.2898C1103.49 89.6912 1105.59 91.0926 1107.69 93.1947C1109.8 95.2969 1111.2 96.6983 1111.9 98.8004C1112.6 100.903 1113.3 102.304 1114 104.406C1114 106.508 1114.7 107.91 1114.7 109.311H1084.57C1084.57 108.61 1084.57 107.91 1083.87 107.209C1083.17 105.808 1082.47 105.107 1081.77 103.705C1080.37 102.304 1078.97 101.603 1076.87 100.903C1074.76 100.202 1071.96 99.5012 1068.46 99.5012H1067.76C1064.96 99.5012 1062.15 100.202 1060.05 100.903C1057.95 101.603 1056.55 103.005 1055.15 103.705C1053.75 105.107 1053.05 106.508 1052.34 107.91C1051.64 109.311 1051.64 111.413 1051.64 112.815V113.515C1051.64 114.917 1051.64 117.019 1052.34 119.121C1053.05 121.223 1053.75 122.625 1055.15 124.026C1056.55 125.428 1057.95 126.829 1060.05 127.53C1062.15 128.23 1064.96 128.931 1067.76 128.931H1068.46C1071.96 128.931 1074.76 128.23 1076.87 127.53C1078.97 126.829 1080.37 125.428 1081.77 124.727C1083.17 123.325 1083.87 122.625 1083.87 121.223C1084.57 119.822 1084.57 119.121 1084.57 118.42H1114.7C1114.7 119.822 1114.7 121.223 1114 123.325C1114 125.428 1113.3 126.829 1111.9 128.931C1111.2 131.033 1109.8 133.135 1107.69 134.537C1105.59 136.639 1103.49 138.04 1099.99 139.442C1096.48 140.843 1092.98 142.245 1088.08 142.945C1083.17 143.646 1077.57 144.347 1071.26 144.347H1064.96Z" fill="#40A4C4"/>
<path d="M445.6 217.922H400.059L393.753 231.235H362.926L402.862 151.354H444.199L486.236 231.235H452.606L445.6 217.922ZM422.479 170.273L409.167 197.601H435.791L422.479 170.273Z" fill="#40A4C4"/>
<path d="M517.765 231.235H488.338V150.653H517.765V231.235Z" fill="#40A4C4"/>
<path d="M615.152 210.214C615.152 211.615 615.152 213.017 614.452 214.418C613.751 215.819 613.05 217.922 612.35 219.323C610.948 220.724 609.547 222.827 608.146 224.228C606.044 225.629 603.942 227.031 600.439 228.432C596.936 229.834 593.433 230.534 588.528 231.235C583.624 231.936 578.719 232.637 572.414 232.637H566.809C557.701 232.637 550.694 231.936 545.089 229.834C539.484 227.732 535.28 225.629 531.777 222.827C528.274 220.024 526.172 216.52 525.472 213.017C524.07 209.513 524.07 206.01 524.07 202.506V200.404C524.07 196.9 524.771 193.397 525.472 189.893C526.873 186.39 528.975 183.587 531.777 180.784C534.58 177.981 539.484 175.879 545.089 173.777C550.694 171.675 557.701 170.974 566.809 170.974H572.414C578.719 170.974 584.325 171.675 588.528 172.375C593.433 173.076 596.936 174.477 600.439 175.879C603.942 177.28 606.044 179.382 608.146 181.485C610.248 183.587 611.649 185.689 613.05 187.791C614.452 189.893 615.152 192.696 615.152 194.798C615.853 197.601 615.853 199.703 615.853 201.805V205.309H552.796C552.796 206.71 553.497 208.112 554.197 209.513C554.898 210.914 556.299 211.615 557.701 213.017C559.102 213.717 561.204 214.418 563.306 215.119C565.408 215.819 568.21 215.819 571.013 215.819C574.516 215.819 577.318 215.819 579.42 215.119C581.522 214.418 582.923 213.717 584.325 213.017C585.726 212.316 586.426 211.615 586.426 210.915C587.127 210.214 587.127 209.513 587.127 209.513L615.152 210.214ZM569.611 185.689C566.809 185.689 564.707 185.689 562.605 186.39C560.503 187.09 559.102 187.09 557.701 188.492C556.299 189.192 555.599 189.893 554.898 191.295C554.197 192.696 553.497 193.397 553.497 194.798H587.127C586.426 191.995 585.025 189.893 582.223 188.492C579.42 186.39 575.216 185.689 569.611 185.689Z" fill="#40A4C4"/>
<path d="M650.884 183.587C651.585 182.886 652.285 181.485 653.687 180.083C655.088 178.682 656.489 177.28 658.591 175.879C660.693 174.477 662.795 173.777 665.597 172.375C668.4 171.675 671.202 170.974 675.406 170.974H676.807C681.712 170.974 685.916 171.675 688.718 173.076C691.521 174.477 694.323 176.58 696.425 178.682C698.527 180.784 699.228 183.587 700.629 187.09C701.329 189.893 702.03 193.397 702.03 196.2V203.207H672.604V201.105C672.604 197.601 671.903 194.798 670.502 192.696C668.4 190.594 665.597 189.192 662.094 189.192C658.591 189.192 655.789 190.594 654.387 192.696C652.285 194.798 651.585 198.302 651.585 201.805V231.235H622.158V173.076H650.884V183.587Z" fill="#40A4C4"/>
<path d="M730.055 231.235C725.151 231.235 720.947 229.834 718.845 227.031C716.043 224.228 714.641 220.024 714.641 214.418V190.594H703.431V173.076H714.641V156.259H743.367V173.076H754.577V190.594H743.367V207.411C743.367 209.513 743.367 210.214 744.068 210.915C744.768 211.615 746.17 212.316 748.272 212.316H754.577V231.235H730.055Z" fill="#40A4C4"/>
<path d="M321.589 230.534L201.08 21.7221C193.374 7.70784 179.361 0 163.947 0C148.533 0 134.521 7.70784 126.814 21.7221L5.60502 230.534C-2.1019 243.848 -2.1019 259.964 5.60502 273.278C13.3119 286.591 27.3245 295 42.7383 295H143.629C143.629 285.19 143.629 269.074 143.629 264.169C143.629 247.352 143.629 229.834 144.33 213.017C144.33 210.915 144.33 209.513 144.33 207.411C144.33 206.01 144.33 205.309 142.928 204.608C138.725 202.506 134.521 200.404 130.317 197.601C118.406 188.492 112.101 176.58 110.699 161.164C109.999 152.755 110.699 145.048 114.202 137.34C117.706 129.632 122.61 124.026 128.916 119.121C131.718 117.019 133.82 115.618 136.623 113.515C138.725 112.114 140.826 112.114 142.928 113.515C145.03 114.917 145.731 117.019 145.731 119.121C145.731 134.537 145.03 149.952 145.03 165.368C145.03 166.069 145.03 166.77 145.03 167.47C145.731 167.47 146.431 168.171 146.431 168.171C152.036 170.273 157.641 173.076 163.247 175.178C164.648 175.879 165.348 175.879 166.75 175.178C171.654 172.375 177.259 170.273 182.864 168.872C184.966 168.171 184.966 168.171 184.966 166.069C184.966 156.96 185.667 147.15 185.667 138.04C185.667 133.135 186.367 128.23 186.367 122.625C186.367 121.924 186.367 121.223 186.367 119.822C187.068 115.618 191.272 113.515 194.775 116.318C196.877 118.42 199.679 119.822 201.781 122.625C210.189 131.033 214.392 141.544 215.093 153.456C216.494 175.879 204.584 194.798 184.265 203.907C183.565 203.907 183.565 204.608 182.864 204.608C182.864 206.71 182.864 208.812 182.864 211.615C182.864 220.724 182.864 229.834 182.864 238.943C182.864 251.556 182.864 278.884 182.163 295H283.054C298.468 295 312.48 287.292 320.187 273.278C329.296 259.964 329.296 243.848 321.589 230.534Z" fill="#40A4C4"/>
</svg>
